<?xml version="1.0" encoding="UTF-8" standalone="no"?>
<!-- Created with Inkscape (http://www.inkscape.org/) -->

<svg
   width="210mm"
   height="297mm"
   viewBox="0 0 210 297"
   version="1.1"
   id="svg5"
   xml:space="preserve"
   inkscape:version="1.2 (dc2aedaf03, 2022-05-15)"
   sodipodi:docname="banana.svg"
   xmlns:inkscape="http://www.inkscape.org/namespaces/inkscape"
   xmlns:sodipodi="http://sodipodi.sourceforge.net/DTD/sodipodi-0.dtd"
   xmlns:xlink="http://www.w3.org/1999/xlink"
   xmlns="http://www.w3.org/2000/svg"
   xmlns:svg="http://www.w3.org/2000/svg"><sodipodi:namedview
     id="namedview7"
     pagecolor="#ffffff"
     bordercolor="#666666"
     borderopacity="1.0"
     inkscape:showpageshadow="2"
     inkscape:pageopacity="0.0"
     inkscape:pagecheckerboard="0"
     inkscape:deskcolor="#d1d1d1"
     inkscape:document-units="mm"
     showgrid="false"
     inkscape:zoom="1.6819304"
     inkscape:cx="233.95736"
     inkscape:cy="90.966903"
     inkscape:window-width="2560"
     inkscape:window-height="1377"
     inkscape:window-x="1912"
     inkscape:window-y="-8"
     inkscape:window-maximized="1"
     inkscape:current-layer="layer1" /><defs
     id="defs2"><linearGradient
       inkscape:collect="always"
       id="linearGradient2773"><stop
         style="stop-color:#ffffff;stop-opacity:1;"
         offset="0"
         id="stop2769" /><stop
         style="stop-color:#ffffff;stop-opacity:0.22151899;"
         offset="1"
         id="stop2771" /></linearGradient><linearGradient
       inkscape:collect="always"
       id="linearGradient2759"><stop
         style="stop-color:#ffffff;stop-opacity:1;"
         offset="0"
         id="stop2755" /><stop
         style="stop-color:#fffffa;stop-opacity:0.73734176;"
         offset="1"
         id="stop2757" /></linearGradient><linearGradient
       inkscape:collect="always"
       id="linearGradient2710"><stop
         style="stop-color:#936600;stop-opacity:0.25316456;"
         offset="0"
         id="stop2706" /><stop
         style="stop-color:#cbab11;stop-opacity:0.20253164;"
         offset="1"
         id="stop2708" /></linearGradient><linearGradient
       inkscape:collect="always"
       id="linearGradient2688"><stop
         style="stop-color:#ffd712;stop-opacity:0.43987343;"
         offset="0"
         id="stop2684" /><stop
         style="stop-color:#bfa927;stop-opacity:1;"
         offset="1"
         id="stop2686" /></linearGradient><linearGradient
       inkscape:collect="always"
       id="linearGradient551"><stop
         style="stop-color:#fffaba;stop-opacity:1;"
         offset="0"
         id="stop547" /><stop
         style="stop-color:#ffd300;stop-opacity:1;"
         offset="1"
         id="stop549" /></linearGradient><linearGradient
       inkscape:collect="always"
       xlink:href="#linearGradient551"
       id="linearGradient553"
       x1="60.170815"
       y1="188.9285"
       x2="47.271446"
       y2="205.21002"
       gradientUnits="userSpaceOnUse"
       gradientTransform="matrix(-1.6173434,0,0,1.6173434,146.43322,-263.02874)" /><linearGradient
       inkscape:collect="always"
       xlink:href="#linearGradient2688"
       id="linearGradient1164"
       x1="46.720867"
       y1="202.14249"
       x2="41.057735"
       y2="209.45737"
       gradientUnits="userSpaceOnUse"
       gradientTransform="matrix(-1.6173434,0,0,1.6173434,146.43322,-263.02874)" /><linearGradient
       inkscape:collect="always"
       xlink:href="#linearGradient2710"
       id="linearGradient2695"
       x1="42.473518"
       y1="206.9404"
       x2="44.597191"
       y2="204.42346"
       gradientUnits="userSpaceOnUse"
       gradientTransform="matrix(-1.6173434,0,0,1.6173434,146.43322,-263.02874)" /><radialGradient
       inkscape:collect="always"
       xlink:href="#linearGradient2759"
       id="radialGradient2761"
       cx="43.653339"
       cy="190.63542"
       fx="43.653339"
       fy="190.63542"
       r="2.9888765"
       gradientTransform="matrix(0.53281633,-0.29474343,0.9544574,1.7254007,-161.55925,-124.88577)"
       gradientUnits="userSpaceOnUse" /><filter
       inkscape:collect="always"
       style="color-interpolation-filters:sRGB"
       id="filter2763"
       x="-0.066306588"
       y="-0.03625398"
       width="1.1326132"
       height="1.072508"><feGaussianBlur
         inkscape:collect="always"
         stdDeviation="0.16515184"
         id="feGaussianBlur2765" /></filter><radialGradient
       inkscape:collect="always"
       xlink:href="#linearGradient2773"
       id="radialGradient2775"
       cx="70.234245"
       cy="208.97701"
       fx="70.234245"
       fy="208.97701"
       r="2.3394286"
       gradientTransform="matrix(0.73984484,0.38687687,-0.26465176,0.50610738,73.577934,76.040197)"
       gradientUnits="userSpaceOnUse" /><filter
       inkscape:collect="always"
       style="color-interpolation-filters:sRGB"
       id="filter2777"
       x="-0.059559614"
       y="-0.11698404"
       width="1.1191192"
       height="1.2339681"><feGaussianBlur
         inkscape:collect="always"
         stdDeviation="0.13664417"
         id="feGaussianBlur2779" /></filter><filter
       inkscape:collect="always"
       style="color-interpolation-filters:sRGB"
       id="filter2803"
       x="-0.038827506"
       y="-0.22992578"
       width="1.077655"
       height="1.4598516"><feGaussianBlur
         inkscape:collect="always"
         stdDeviation="0.051980276"
         id="feGaussianBlur2805" /></filter><filter
       inkscape:collect="always"
       style="color-interpolation-filters:sRGB"
       id="filter5213"
       x="-0.04937022"
       y="-0.050969342"
       width="1.0987404"
       height="1.1019387"><feGaussianBlur
         inkscape:collect="always"
         stdDeviation="0.83286683"
         id="feGaussianBlur5215" /></filter><filter
       inkscape:collect="always"
       style="color-interpolation-filters:sRGB"
       id="filter2576"
       x="-0.020998676"
       y="-0.021678832"
       width="1.0419974"
       height="1.0433577"><feGaussianBlur
         inkscape:collect="always"
         stdDeviation="0.57293408"
         id="feGaussianBlur2578" /></filter></defs><g
     inkscape:label="Layer 1"
     inkscape:groupmode="layer"
     id="layer1"><g
       id="g2591"
       inkscape:export-filename="g2591.png"
       inkscape:export-xdpi="88.752235"
       inkscape:export-ydpi="88.752235"><path
         style="fill:#000000;fill-opacity:1;stroke:none;stroke-width:0.264583px;stroke-linecap:butt;stroke-linejoin:miter;stroke-opacity:1;filter:url(#filter5213)"
         d="m 44.605029,175.02747 c 1.603177,1.1769 -1.377299,3.83553 -2.169072,5.78419 -1.220104,3.49551 1.776998,8.33095 2.784815,10.01506 1.599593,2.67298 6.629018,7.45725 10.108842,9.39536 5.240459,2.9187 13.40494,5.63326 15.415521,6.67407 1.694181,0.87702 4.303383,3.15563 3.309225,4.81088 -1.15968,1.93084 -3.976634,2.80868 -8.203543,2.30812 -4.226912,-0.50055 -12.618408,-2.07527 -18.019988,-5.22802 -6.1342,-3.58036 -10.222367,-8.5602 -12.041132,-11.67962 -1.468754,-2.51909 -2.669629,-5.83981 -1.585092,-8.67629 1.24679,-3.26083 3.058949,-3.72635 3.893206,-5.1724 0.834261,-1.44605 2.098455,-6.53196 2.83648,-7.56395 0.821451,-0.83733 2.512592,-0.84212 3.670738,-0.6674 z"
         id="path5211"
         sodipodi:nodetypes="ccssssssssscc"
         transform="matrix(-1.646939,0,0,1.646939,148.03226,-268.78642)" /><path
         style="fill:url(#linearGradient553);fill-opacity:1;stroke:none;stroke-width:0.427922px;stroke-linecap:butt;stroke-linejoin:miter;stroke-opacity:1;filter:url(#filter2576)"
         d="m 74.291559,20.050783 c -2.592887,1.903452 2.227566,6.20337 3.508135,9.355022 1.973327,5.65344 -2.874016,13.474007 -4.504003,16.197791 C 70.7086,49.926723 62.574293,57.66453 56.946223,60.79912 c -8.475622,4.72054 -21.680392,9.110916 -24.932192,10.794263 -2.740072,1.418442 -6.960048,5.103737 -5.352153,7.780845 1.875601,3.122831 6.431583,4.5426 13.267946,3.733022 6.836369,-0.809561 20.408299,-3.356424 29.144509,-8.455503 9.921108,-5.790672 16.533078,-13.844783 19.474645,-18.889957 2.37548,-4.074233 4.317707,-9.444978 2.563638,-14.03254 -2.016487,-5.273882 -4.947371,-6.026788 -6.296651,-8.365547 -1.349286,-2.338759 -3.393922,-10.564422 -4.587562,-12.233505 -1.328568,-1.35425 -4.063724,-1.361997 -5.936844,-1.079415 z"
         id="path2551"
         sodipodi:nodetypes="ccssssssssscc" /><path
         style="fill:url(#linearGradient553);fill-opacity:1;stroke:none;stroke-width:0.427922px;stroke-linecap:butt;stroke-linejoin:miter;stroke-opacity:1"
         d="m 74.291559,20.050783 c -2.592887,1.903452 2.227566,6.20337 3.508135,9.355022 1.973327,5.65344 -2.874016,13.474007 -4.504003,16.197791 C 70.7086,49.926723 62.574293,57.66453 56.946223,60.79912 c -8.475622,4.72054 -21.680392,9.110916 -24.932192,10.794263 -2.740072,1.418442 -6.960048,5.103737 -5.352153,7.780845 1.875601,3.122831 6.431583,4.5426 13.267946,3.733022 6.836369,-0.809561 20.408299,-3.356424 29.144509,-8.455503 9.921108,-5.790672 16.533078,-13.844783 19.474645,-18.889957 2.37548,-4.074233 4.317707,-9.444978 2.563638,-14.03254 -2.016487,-5.273882 -4.947371,-6.026788 -6.296651,-8.365547 -1.349286,-2.338759 -3.393922,-10.564422 -4.587562,-12.233505 -1.328568,-1.35425 -4.063724,-1.361997 -5.936844,-1.079415 z"
         id="path377"
         sodipodi:nodetypes="ccssssssssscc" /><path
         id="path934"
         style="fill:url(#linearGradient1164);fill-opacity:1;stroke:none;stroke-width:0.427922px;stroke-linecap:butt;stroke-linejoin:miter;stroke-opacity:1"
         d="m 76.230581,19.902991 c 1.505862,0.0014 3.084172,0.295893 3.997562,1.226932 1.193638,1.669083 3.23834,9.894632 4.587625,12.233392 1.349279,2.338759 4.280322,3.092344 6.296806,8.36621 1.754068,4.587562 -0.187875,9.957773 -2.563353,14.032007 -2.941564,5.045173 -9.553536,13.099753 -19.474634,18.890425 -8.736202,5.099063 -22.30831,7.646072 -29.144672,8.455633 -6.836357,0.809577 -11.392494,-0.610628 -13.268093,-3.733459 -0.588492,-0.979819 -0.394778,-2.094978 0.219811,-3.184339 6.866048,4.6049 14.835695,2.66881 27.068582,-0.326784 11.888728,-4.123515 20.176125,-9.234401 27.859234,-21.880037 6.281635,-9.819829 0.351028,-21.181182 -7.716807,-30.614806 -0.679046,-1.346487 -0.867163,-2.53462 0.198917,-3.317236 0.585349,-0.08831 1.25454,-0.148634 1.939022,-0.147987 z"
         sodipodi:nodetypes="scsssssscccccss" /><path
         id="path2693"
         style="fill:url(#linearGradient2695);fill-opacity:1;stroke:none;stroke-width:0.427922px;stroke-linecap:butt;stroke-linejoin:miter;stroke-opacity:1"
         d="m 78.07098,20.079346 c 0.848952,0.176889 1.61901,0.502023 2.157163,1.050577 1.193638,1.669083 3.23834,9.894632 4.587625,12.233392 1.349279,2.338759 4.280322,3.092344 6.296806,8.36621 1.754068,4.587562 -0.187875,9.957773 -2.563353,14.032007 -2.941564,5.045173 -9.553536,13.099753 -19.474634,18.890425 -8.736202,5.099063 -22.30831,7.646072 -29.144672,8.455633 -5.269824,0.624068 -9.18321,-0.07779 -11.559747,-1.862128 2.502425,0.750657 5.409352,1.269727 8.025211,0.977862 14.90786,-1.663276 27.249899,-4.800001 33.583528,-9.41344 C 85.22429,61.705058 89.367859,53.177357 89.95167,49.275839 90.78836,43.684359 85.83173,38.15856 83.336428,34.01022 81.125047,30.333869 78.963466,24.375252 78.07098,20.079346 Z" /><path
         style="opacity:0.712941;fill:url(#radialGradient2761);fill-opacity:1;stroke:none;stroke-width:0.264583px;stroke-linecap:butt;stroke-linejoin:miter;stroke-opacity:1;filter:url(#filter2763)"
         d="m 41.608316,184.52384 c 0,0 0.99166,3.73433 1.887712,5.42717 1.06956,2.02064 4.090041,5.50582 4.090041,5.50582 0,0 -3.496071,-2.34793 -4.561969,-4.326 -1.030707,-1.91277 -1.415784,-6.60699 -1.415784,-6.60699 z"
         id="path2720"
         sodipodi:nodetypes="cscsc"
         transform="matrix(-1.6173434,0,0,1.6173434,146.43322,-263.02874)" /><path
         style="opacity:0.745882;fill:url(#radialGradient2775);fill-opacity:1;stroke:none;stroke-width:0.264583px;stroke-linecap:butt;stroke-linejoin:miter;stroke-opacity:1;filter:url(#filter2777)"
         d="m 69.845337,207.96292 c 0.47193,0 2.560328,0.17693 2.595605,1.17982 0.02433,0.69175 -1.207025,1.44747 -2.280983,0.86521 -0.816848,-0.44287 -2.757659,-1.79246 -3.224843,-2.59561 1.2485,0.30509 2.329729,0.55494 2.910221,0.55058 z"
         id="path2767"
         sodipodi:nodetypes="csscc"
         transform="matrix(-1.6173434,0,0,1.6173434,146.43322,-263.02874)" /><path
         id="path2781"
         style="fill:#bc9626;fill-opacity:1;stroke:none;stroke-width:0.427922px;stroke-linecap:butt;stroke-linejoin:miter;stroke-opacity:1"
         d="m 76.230581,19.902991 c 1.50586,0.0014 3.084172,0.295893 3.997562,1.226932 0.01861,0.02604 0.03781,0.05855 0.05683,0.08782 -1.016993,0.230197 -2.085765,0.441858 -3.118315,0.453002 -1.007295,0.01132 -2.449716,-0.236779 -3.604744,-0.46387 0.06714,-0.442117 0.290983,-0.83387 0.729642,-1.155883 0.585348,-0.08831 1.25454,-0.148634 1.939022,-0.147987 z" /><path
         id="path2786"
         style="fill:#402d1c;fill-opacity:0.477041;stroke:none;stroke-width:0.16388px;stroke-linecap:butt;stroke-linejoin:miter;stroke-opacity:1;filter:url(#filter2803)"
         d="m 43.308864,175.21138 c -0.719661,4.3e-4 -1.473948,0.0908 -1.910463,0.37653 -0.0089,0.008 -0.01807,0.018 -0.02716,0.0269 0.486028,0.0707 0.996802,0.13561 1.490265,0.13903 0.481393,0.003 1.170736,-0.0727 1.722732,-0.14236 -0.03209,-0.13568 -0.139063,-0.25591 -0.348701,-0.35473 -0.279742,-0.0271 -0.599553,-0.0456 -0.926672,-0.0454 z"
         transform="matrix(-1.6173434,0,0,1.6173434,146.43322,-263.02874)" /><path
         id="path2792"
         style="fill:#8e643f;fill-opacity:1;stroke:none;stroke-width:0.427922px;stroke-linecap:butt;stroke-linejoin:miter;stroke-opacity:1"
         d="m 26.63675,76.674558 c 0.375532,0.403818 0.719682,0.882471 0.88008,1.395751 0.32863,1.051629 0.560332,1.623376 0.170501,2.591777 -0.400754,-0.390103 -0.74409,-0.819395 -1.025509,-1.287955 -0.501408,-0.834824 -0.43552,-1.767983 -0.02507,-2.699573 z" /><path
         id="path2797"
         style="fill:#202020;fill-opacity:0.52551;stroke:none;stroke-width:0.344426px;stroke-linecap:butt;stroke-linejoin:miter;stroke-opacity:1"
         d="m 26.464097,77.227366 c 0.319816,0.310676 0.621186,0.686061 0.783763,1.103239 0.333095,0.854749 0.555009,1.315708 0.328786,2.151487 -0.338183,-0.297462 -0.635161,-0.63167 -0.887477,-1.003028 -0.449553,-0.661639 -0.469967,-1.445226 -0.225064,-2.251698 z" /></g></g></svg>
