<?xml version="1.0" encoding="UTF-8" standalone="no"?>
<!-- Created with Inkscape (http://www.inkscape.org/) -->

<svg
   width="210mm"
   height="297mm"
   viewBox="0 0 210 297"
   version="1.1"
   id="svg5"
   inkscape:version="1.3 (0e150ed6c4, 2023-07-21)"
   sodipodi:docname="cherry.svg"
   xml:space="preserve"
   xmlns:inkscape="http://www.inkscape.org/namespaces/inkscape"
   xmlns:sodipodi="http://sodipodi.sourceforge.net/DTD/sodipodi-0.dtd"
   xmlns:xlink="http://www.w3.org/1999/xlink"
   xmlns="http://www.w3.org/2000/svg"
   xmlns:svg="http://www.w3.org/2000/svg"><sodipodi:namedview
     id="namedview7"
     pagecolor="#ffffff"
     bordercolor="#666666"
     borderopacity="1.0"
     inkscape:showpageshadow="2"
     inkscape:pageopacity="0.0"
     inkscape:pagecheckerboard="0"
     inkscape:deskcolor="#d1d1d1"
     inkscape:document-units="mm"
     showgrid="false"
     inkscape:zoom="1.6819304"
     inkscape:cx="228.30909"
     inkscape:cy="243.76752"
     inkscape:window-width="1500"
     inkscape:window-height="998"
     inkscape:window-x="247"
     inkscape:window-y="18"
     inkscape:window-maximized="0"
     inkscape:current-layer="g7" /><defs
     id="defs2"><linearGradient
       inkscape:collect="always"
       id="linearGradient8"><stop
         style="stop-color:#ffffff;stop-opacity:1;"
         offset="0"
         id="stop7" /><stop
         style="stop-color:#ff2d2d;stop-opacity:0;"
         offset="1"
         id="stop8" /></linearGradient><linearGradient
       inkscape:collect="always"
       id="linearGradient2"><stop
         style="stop-color:#370004;stop-opacity:1;"
         offset="0"
         id="stop1" /><stop
         style="stop-color:#be1515;stop-opacity:1;"
         offset="1"
         id="stop2" /></linearGradient><linearGradient
       inkscape:collect="always"
       id="linearGradient5021"><stop
         style="stop-color:#460002;stop-opacity:1;"
         offset="0"
         id="stop5017" /><stop
         style="stop-color:#830f0f;stop-opacity:0.17037037;"
         offset="1"
         id="stop5019" /></linearGradient><linearGradient
       inkscape:collect="always"
       id="linearGradient5005"><stop
         style="stop-color:#6f0007;stop-opacity:1;"
         offset="0"
         id="stop5001" /><stop
         style="stop-color:#921f26;stop-opacity:0.15308642;"
         offset="1"
         id="stop5003" /></linearGradient><linearGradient
       inkscape:collect="always"
       id="linearGradient3675"><stop
         style="stop-color:#fc5757;stop-opacity:1;"
         offset="0"
         id="stop3671" /><stop
         style="stop-color:#5f030e;stop-opacity:1;"
         offset="1"
         id="stop3673" /></linearGradient><inkscape:path-effect
       effect="bend_path"
       id="path-effect3563"
       is_visible="true"
       lpeversion="1"
       bendpath="m 98.986888,55.962791 c 1.787652,-0.05281 2.453872,-0.01024 3.500132,0"
       prop_scale="1"
       scale_y_rel="false"
       vertical="false"
       hide_knot="false"
       bendpath-nodetypes="cc" /><linearGradient
       inkscape:collect="always"
       id="linearGradient3555"><stop
         style="stop-color:#800006;stop-opacity:1;"
         offset="0"
         id="stop3551" /><stop
         style="stop-color:#c61717;stop-opacity:1;"
         offset="1"
         id="stop3553" /></linearGradient><linearGradient
       inkscape:collect="always"
       id="linearGradient2754"><stop
         style="stop-color:#fe8380;stop-opacity:1;"
         offset="0"
         id="stop2750" /><stop
         style="stop-color:#ff5050;stop-opacity:0;"
         offset="1"
         id="stop2752" /></linearGradient><linearGradient
       inkscape:collect="always"
       id="linearGradient2707"><stop
         style="stop-color:#ffffff;stop-opacity:1"
         offset="0"
         id="stop2703" /><stop
         style="stop-color:#ff2d2d;stop-opacity:0;"
         offset="1"
         id="stop2705" /></linearGradient><linearGradient
       inkscape:collect="always"
       id="linearGradient1224"><stop
         style="stop-color:#5d0c0c;stop-opacity:0;"
         offset="0"
         id="stop1220" /><stop
         style="stop-color:#2c0202;stop-opacity:0.98271596;"
         offset="1"
         id="stop1222" /></linearGradient><linearGradient
       inkscape:collect="always"
       id="linearGradient1216"><stop
         style="stop-color:#380b0b;stop-opacity:0.96790123;"
         offset="0"
         id="stop1212" /><stop
         style="stop-color:#730202;stop-opacity:0;"
         offset="1"
         id="stop1214" /></linearGradient><linearGradient
       inkscape:collect="always"
       id="linearGradient1101"><stop
         style="stop-color:#fc5757;stop-opacity:1;"
         offset="0"
         id="stop1097" /><stop
         style="stop-color:#670008;stop-opacity:1;"
         offset="1"
         id="stop1099" /></linearGradient><radialGradient
       inkscape:collect="always"
       xlink:href="#linearGradient1101"
       id="radialGradient1192"
       cx="97.639908"
       cy="57.587543"
       fx="97.639908"
       fy="57.587543"
       r="7.5353065"
       gradientTransform="matrix(1.6545325,1.6705797,-1.5546228,1.5396895,14.117793,-174.51445)"
       gradientUnits="userSpaceOnUse" /><linearGradient
       inkscape:collect="always"
       xlink:href="#linearGradient1216"
       id="linearGradient1207"
       x1="105.55456"
       y1="67.053108"
       x2="103.43088"
       y2="62.53046"
       gradientUnits="userSpaceOnUse"
       gradientTransform="matrix(1.6123024,0,0,1.6123024,-71.288227,-16.741563)" /><linearGradient
       inkscape:collect="always"
       xlink:href="#linearGradient1224"
       id="linearGradient1226"
       x1="103.58383"
       y1="64.833366"
       x2="104.68935"
       y2="66.799744"
       gradientUnits="userSpaceOnUse"
       gradientTransform="matrix(1.6123024,0,0,1.6123024,-71.288227,-16.741563)" /><radialGradient
       inkscape:collect="always"
       xlink:href="#linearGradient8"
       id="radialGradient2709"
       cx="97.526436"
       cy="58.971497"
       fx="97.526436"
       fy="58.971497"
       r="3.6510978"
       gradientTransform="matrix(0.99701898,0.69304607,-0.47381698,0.68163508,27.772299,-49.376883)"
       gradientUnits="userSpaceOnUse" /><radialGradient
       inkscape:collect="always"
       xlink:href="#linearGradient2754"
       id="radialGradient2748"
       gradientUnits="userSpaceOnUse"
       gradientTransform="matrix(0.79723402,0.54928838,-0.47113476,0.6954391,47.098441,-36.170751)"
       cx="97.526436"
       cy="58.971497"
       fx="97.526436"
       fy="58.971497"
       r="3.6510978" /><filter
       inkscape:collect="always"
       style="color-interpolation-filters:sRGB"
       id="filter2767"
       x="-0.09393183"
       y="-0.11936303"
       width="1.1878637"
       height="1.2387261"><feGaussianBlur
         inkscape:collect="always"
         stdDeviation="0.28631278"
         id="feGaussianBlur2769" /></filter><radialGradient
       inkscape:collect="always"
       xlink:href="#linearGradient3555"
       id="radialGradient3557"
       cx="100.73695"
       cy="55.962791"
       fx="100.73695"
       fy="55.962791"
       r="1.7500662"
       gradientTransform="matrix(0.97701164,0.06578962,-0.07023334,0.42353943,6.2462312,25.632896)"
       gradientUnits="userSpaceOnUse" /><radialGradient
       inkscape:collect="always"
       xlink:href="#linearGradient3675"
       id="radialGradient3615"
       cx="76.383774"
       cy="56.256405"
       fx="76.383774"
       fy="56.256405"
       r="8.4002075"
       gradientTransform="matrix(1.481641,1.945643,-1.6697397,1.2715359,32.970716,-145.8792)"
       gradientUnits="userSpaceOnUse" /><radialGradient
       inkscape:collect="always"
       xlink:href="#linearGradient2707"
       id="radialGradient3619"
       gradientUnits="userSpaceOnUse"
       gradientTransform="matrix(1.1252885,0.84360195,-0.56735869,0.75680506,-0.63372122,-70.662021)"
       cx="97.526436"
       cy="58.971497"
       fx="97.526436"
       fy="58.971497"
       r="3.6510978" /><filter
       inkscape:collect="always"
       style="color-interpolation-filters:sRGB"
       id="filter3667"
       x="-0.17634481"
       y="-0.20712312"
       width="1.3526896"
       height="1.4142462"><feGaussianBlur
         inkscape:collect="always"
         stdDeviation="0.53748303"
         id="feGaussianBlur3669" /></filter><linearGradient
       inkscape:collect="always"
       xlink:href="#linearGradient5005"
       id="linearGradient3685"
       x1="84.937454"
       y1="67.463142"
       x2="82.980667"
       y2="64.395615"
       gradientUnits="userSpaceOnUse"
       gradientTransform="matrix(1.6123024,0,0,1.6123024,-71.288227,-16.741563)" /><linearGradient
       inkscape:collect="always"
       xlink:href="#linearGradient5021"
       id="linearGradient5015"
       x1="85.855934"
       y1="66.331451"
       x2="84.239136"
       y2="64.404411"
       gradientUnits="userSpaceOnUse"
       gradientTransform="matrix(1.6123024,0,0,1.6123024,-71.288227,-16.741563)" /><radialGradient
       inkscape:collect="always"
       xlink:href="#linearGradient2"
       id="radialGradient5028"
       gradientUnits="userSpaceOnUse"
       gradientTransform="matrix(1.002418,-0.03978276,0.02394351,0.42760549,-1.583528,36.040389)"
       cx="100.73695"
       cy="55.962791"
       fx="100.73695"
       fy="55.962791"
       r="1.7500662" /><filter
       inkscape:collect="always"
       style="color-interpolation-filters:sRGB"
       id="filter16227"
       x="-0.044408801"
       y="-0.04286294"
       width="1.0888176"
       height="1.0857259"><feGaussianBlur
         inkscape:collect="always"
         stdDeviation="0.74900445"
         id="feGaussianBlur16229" /></filter><filter
       inkscape:collect="always"
       style="color-interpolation-filters:sRGB"
       id="filter1"
       x="-0.034876755"
       y="-0.14290958"
       width="1.0697535"
       height="1.2858192"><feGaussianBlur
         inkscape:collect="always"
         stdDeviation="0.06278631"
         id="feGaussianBlur1" /></filter><filter
       inkscape:collect="always"
       style="color-interpolation-filters:sRGB"
       id="filter2"
       x="-0.039092372"
       y="-0.046463117"
       width="1.0781847"
       height="1.0929262"><feGaussianBlur
         inkscape:collect="always"
         stdDeviation="0.39578395"
         id="feGaussianBlur2" /></filter><filter
       inkscape:collect="always"
       style="color-interpolation-filters:sRGB"
       id="filter4"
       x="-0.067649425"
       y="-0.032294122"
       width="1.1352988"
       height="1.0645882"><feGaussianBlur
         inkscape:collect="always"
         stdDeviation="0.50650859"
         id="feGaussianBlur4" /></filter><filter
       inkscape:collect="always"
       style="color-interpolation-filters:sRGB"
       id="filter5"
       x="-0.024716968"
       y="-0.1209181"
       width="1.0494339"
       height="1.2418362"><feGaussianBlur
         inkscape:collect="always"
         stdDeviation="0.046355786"
         id="feGaussianBlur5" /></filter><filter
       inkscape:collect="always"
       style="color-interpolation-filters:sRGB"
       id="filter6"
       x="-0.089581339"
       y="-0.037671359"
       width="1.1791627"
       height="1.0753427"><feGaussianBlur
         inkscape:collect="always"
         stdDeviation="0.75470929"
         id="feGaussianBlur6" /></filter><filter
       inkscape:collect="always"
       style="color-interpolation-filters:sRGB"
       id="filter7"
       x="-0.019329425"
       y="-0.029699795"
       width="1.0386588"
       height="1.0593996"><feGaussianBlur
         inkscape:collect="always"
         stdDeviation="0.27877322"
         id="feGaussianBlur7" /></filter><filter
       inkscape:collect="always"
       style="color-interpolation-filters:sRGB"
       id="filter8"
       x="-0.050557374"
       y="-0.064245327"
       width="1.1011147"
       height="1.1284907"><feGaussianBlur
         inkscape:collect="always"
         stdDeviation="0.15410349"
         id="feGaussianBlur8" /></filter><filter
       inkscape:collect="always"
       style="color-interpolation-filters:sRGB"
       id="filter9"
       x="-0.039272703"
       y="-0.046210917"
       width="1.0785454"
       height="1.0924218"><feGaussianBlur
         inkscape:collect="always"
         stdDeviation="0.44324726"
         id="feGaussianBlur9" /></filter></defs><g
     inkscape:label="Layer 1"
     inkscape:groupmode="layer"
     id="layer1"><g
       id="g7"
       inkscape:label="Cherry"><path
         id="path16216"
         style="fill:#000000;fill-opacity:1;stroke:none;stroke-width:0.264583px;stroke-linecap:butt;stroke-linejoin:miter;stroke-opacity:1;filter:url(#filter16227)"
         d="m 92.463607,25.028963 c -0.06169,0.978457 -0.268111,3.799061 -0.695048,5.11545 -0.150787,0.464926 -0.310446,0.948662 -0.491443,1.451074 -0.159609,0.159013 -0.238618,0.5309 -0.269751,0.716236 -0.606946,1.543081 -1.468285,3.267218 -2.965194,5.230172 -2.436635,3.195252 -4.484434,6.31098 -5.228104,8.78706 -0.814417,2.711638 -1.234764,5.435263 -1.439189,7.113778 -0.125772,0.02473 -0.203088,0.04237 -0.203088,0.04237 0,0 -3.459149,-1.835543 -5.876128,-0.406693 -2.776853,1.641597 -4.211575,5.064431 -2.710945,9.289872 1.401468,3.946226 7.404113,4.789711 9.609232,4.331002 2.536029,-0.527546 5.823365,-2.330323 6.518982,-6.643522 0.373081,-2.313294 -0.833632,-5.041593 -3.067513,-6.325196 -1.141151,-0.655713 -2.90914,-0.504943 -3.843693,-0.361735 0.34108,-2.170234 1.025815,-6.473048 2.069125,-8.54108 1.242794,-2.463453 2.669523,-4.67211 5.172294,-7.95352 0.584752,-0.766676 1.32673,-1.936689 2.005562,-3.338298 0.597407,0.87799 3.841413,5.649636 4.168221,6.230628 0.500555,0.889875 3.868685,6.357459 4.616256,8.78706 0.582357,1.89264 0.807017,4.760903 0.892967,6.517949 -0.031,0.01658 -0.0481,0.02584 -0.0481,0.02584 0,0 -2.046807,-1.10509 -4.404897,0.03927 -2.674257,1.297801 -3.780684,5.152901 -2.241723,8.258928 0.82728,1.669669 3.71957,3.866009 6.60735,3.539318 2.95289,-0.334056 5.19004,-1.444123 6.72465,-3.382222 1.56387,-1.975041 1.28069,-5.648592 -0.31471,-7.668783 -1.90629,-2.41387 -4.77714,-1.503767 -5.89783,-1.015958 -0.0364,-2.094568 -0.49507,-5.846614 -1.651577,-8.427393 -1.438356,-3.20975 -4.660445,-8.178604 -6.7014,-11.210685 0.508477,0.716471 1.052046,1.412046 1.529106,1.866553 1.612158,1.53594 3.546161,2.797451 5.617228,3.615283 3.172493,1.252769 7.122133,0.113796 10.066573,1.835547 1.10241,0.644627 2.44739,2.947623 2.44739,2.947623 0,0 -0.96248,-6.00801 -2.72541,-8.342643 -2.07019,-2.741545 -4.66335,-4.121554 -8.50956,-4.226615 -2.809912,-0.07675 -6.867778,0.550919 -9.403045,-1.177706 0.765461,-2.01589 1.278177,-4.304201 1.060401,-6.497795 -0.141954,-0.09196 -0.280952,-0.164269 -0.417029,-0.221175 z m -1.148767,7.9375 c 0.174472,0.285603 0.411242,0.664865 0.682129,1.081588 -0.294821,-0.431127 -0.534257,-0.777827 -0.706934,-1.026294 0.0083,-0.01834 0.01651,-0.03688 0.02481,-0.05529 z"
         transform="matrix(1.6123024,0,0,1.6123024,-71.288227,-16.741563)" /><path
         style="fill:#6b8425;fill-opacity:1;stroke:none;stroke-width:0.426588px;stroke-linecap:butt;stroke-linejoin:miter;stroke-opacity:1;filter:url(#filter7)"
         d="m 76.401253,34.192028 c 4.055427,3.101513 10.850366,2.024755 15.513219,2.152122 6.201269,0.16939 10.382018,2.394854 13.719788,6.815058 2.84238,3.764138 4.39393,13.450774 4.39393,13.450774 0,0 -2.16814,-3.713273 -3.94556,-4.752608 -4.74733,-2.775985 -11.115586,-0.939323 -16.230606,-2.959167 -3.33919,-1.318594 -6.457561,-3.352265 -9.056851,-5.828668 -2.233979,-2.128364 -5.380311,-7.532432 -5.380311,-7.532432 0,0 0.226243,-1.926426 0.986391,-1.345079 z"
         id="path7"
         sodipodi:nodetypes="ssscssscs" /><path
         style="fill:#a4c22f;fill-opacity:1;stroke:none;stroke-width:0.426588px;stroke-linecap:butt;stroke-linejoin:miter;stroke-opacity:1"
         d="m 76.401253,34.192028 c 4.055427,3.101513 10.850366,2.024755 15.513219,2.152122 6.201269,0.16939 10.382018,2.394854 13.719788,6.815058 2.84238,3.764138 4.39393,13.450774 4.39393,13.450774 0,0 -2.16814,-3.713273 -3.94556,-4.752608 -4.74733,-2.775985 -11.115586,-0.939323 -16.230606,-2.959167 -3.33919,-1.318594 -6.457561,-3.352265 -9.056851,-5.828668 -2.233979,-2.128364 -5.380311,-7.532432 -5.380311,-7.532432 0,0 0.226243,-1.926426 0.986391,-1.345079 z"
         id="path7161"
         sodipodi:nodetypes="ssscssscs" /><path
         id="path8129"
         style="fill:#788f39;fill-opacity:1;stroke:none;stroke-width:0.426588px;stroke-linecap:butt;stroke-linejoin:miter;stroke-opacity:1"
         d="m 76.140538,34.083271 c -0.264445,-0.01 -0.440798,0.322778 -0.554066,0.672377 0.0023,0.02143 0.0035,0.04321 0.0076,0.06415 0.278158,1.452508 2.349214,1.501649 5.905093,2.604667 3.625942,1.124751 9.66427,2.026445 14.030226,3.291125 4.318349,1.25089 8.699409,5.012071 9.892229,6.766165 1.60226,2.356188 3.27538,6.14675 4.18953,8.4525 0.25984,0.406997 0.41743,0.675708 0.41743,0.675708 0,0 -1.55181,-9.686729 -4.39419,-13.450863 -3.33777,-4.4202 -7.518723,-6.645192 -13.719977,-6.814582 -4.662851,-0.127372 -11.457566,0.949406 -15.512989,-2.152104 -0.09501,-0.07267 -0.181851,-0.106187 -0.260785,-0.109153 z"
         sodipodi:nodetypes="sccsssccsssss" /><path
         style="fill:#ffffff;fill-opacity:1;stroke:none;stroke-width:0.426588px;stroke-linecap:butt;stroke-linejoin:miter;stroke-opacity:1"
         d="m 79.62944,39.392991 c 5.339255,3.559504 7.63021,6.284891 15.339525,8.463208 8.080955,2.283326 -10.936539,2.503969 -15.339525,-8.463208 z"
         id="path16069"
         sodipodi:nodetypes="csc" /><path
         style="fill:url(#radialGradient3615);fill-opacity:1;stroke:none;stroke-width:0.426588px;stroke-linecap:butt;stroke-linejoin:miter;stroke-opacity:1;filter:url(#filter9)"
         d="m 59.584955,69.492702 c 0,0 -5.577085,-2.959573 -9.473989,-0.655833 -4.477132,2.646754 -6.790088,8.16555 -4.370617,14.978245 2.259594,6.362517 11.937879,7.722107 15.493203,6.982527 4.088848,-0.850563 9.388719,-3.757182 10.510265,-10.711371 0.60152,-3.729733 -1.344093,-8.128177 -4.945787,-10.197735 -2.594714,-1.490941 -7.213075,-0.39584 -7.213075,-0.39584 z"
         id="path369"
         sodipodi:nodetypes="cssssscc" /><path
         id="path5"
         style="fill:#6b8425;fill-opacity:1;stroke:none;stroke-width:0.426588px;stroke-linecap:butt;stroke-linejoin:miter;stroke-opacity:1;filter:url(#filter6)"
         d="M 76.243408 23.035286 C 74.440453 23.136495 72.530403 24.639542 72.345455 25.379329 C 72.435135 26.99342 76.327149 32.527123 72.366125 38.854993 C 68.136091 45.810565 64.892856 48.660501 62.347616 54.090238 C 59.640775 59.864711 58.338558 70.218453 58.338558 70.218453 C 58.23778 70.82311 58.721127 71.078432 59.310592 71.099536 C 59.310277 71.102732 59.309354 71.109273 59.309041 71.112455 C 59.896327 71.100213 60.133665 71.004879 60.338953 70.925903 C 60.339082 70.925853 60.33934 70.925953 60.339469 70.925903 C 60.439351 70.358258 60.588555 69.360494 60.788021 68.121423 C 60.987486 66.882352 61.236792 65.401701 61.536296 63.867936 C 61.760923 62.717612 62.013784 61.537315 62.294906 60.406649 C 62.48232 59.652871 62.682275 58.921382 62.894869 58.235205 C 62.894919 58.235044 62.894819 58.234849 62.894869 58.234688 C 63.001118 57.891751 63.110983 57.560248 63.223531 57.243018 C 63.223587 57.24286 63.223475 57.242659 63.223531 57.242501 C 63.336135 56.925135 63.451881 56.622359 63.570797 56.336613 C 63.689712 56.050871 63.811947 55.782834 63.937183 55.534595 C 64.187653 55.038116 64.442548 54.547571 64.705094 54.059749 C 65.230252 53.083987 65.785132 52.117384 66.39233 51.126078 C 66.695895 50.630513 67.012228 50.129116 67.344727 49.617126 C 67.677284 49.105004 68.025601 48.582566 68.392725 48.045646 C 68.759773 47.508869 69.145644 46.957796 69.552861 46.387866 C 70.367277 45.247967 71.267403 44.033744 72.276208 42.711088 C 72.434902 42.503024 72.600924 42.276133 72.772302 42.032576 C 73.115061 41.545466 73.479725 40.990181 73.852856 40.376864 C 74.599107 39.150218 75.378958 37.692108 76.083728 36.086686 C 76.612321 34.882634 77.09876 33.595981 77.497078 32.261597 C 77.497126 32.261438 77.497031 32.261239 77.497078 32.26108 C 77.762563 31.371641 77.989007 30.460888 78.162671 29.539799 C 78.336365 28.618545 78.457321 27.686864 78.512004 26.754956 C 78.539343 26.289 78.549998 25.822821 78.542493 25.358142 C 78.534988 24.893464 78.50969 24.430373 78.463944 23.969596 C 78.463787 23.969404 78.463586 23.969272 78.463428 23.96908 C 78.463333 23.968914 78.463006 23.968729 78.462911 23.968563 C 78.430801 23.91235 78.362537 23.842332 78.282043 23.768575 C 78.074287 23.559815 77.846978 23.405379 77.607666 23.289535 C 77.342837 23.136147 77.109321 23.034864 77.086768 23.110217 C 76.812692 23.046636 76.530277 23.019183 76.243408 23.035286 z " /><path
         style="fill:url(#radialGradient1192);fill-opacity:1;stroke:none;stroke-width:0.426588px;stroke-linecap:butt;stroke-linejoin:miter;stroke-opacity:1;filter:url(#filter2)"
         d="m 91.035106,72.092412 c 0,0 -3.299695,-1.781651 -7.101652,0.06341 -4.311716,2.092449 -6.095505,8.307725 -3.614232,13.315585 1.333827,2.692014 5.996479,6.233407 10.652456,5.706683 4.760951,-0.538601 8.368446,-2.328247 10.842702,-5.453052 2.52143,-3.184367 2.065,-9.107308 -0.50726,-12.36447 -3.888716,-4.924144 -10.272014,-1.268153 -10.272014,-1.268153 z"
         id="path473"
         sodipodi:nodetypes="cssssscc" /><path
         id="path3"
         style="fill:#6b8425;fill-opacity:1;stroke:none;stroke-width:0.426588px;stroke-linecap:butt;stroke-linejoin:miter;stroke-opacity:1;filter:url(#filter4)"
         d="M 75.651196 35.61178 C 75.640795 35.599893 76.037306 36.17688 76.143156 36.331116 C 76.431159 36.582257 76.47086 36.675056 75.651196 35.61178 z M 76.143156 36.331116 C 75.974014 36.183622 75.725173 35.988526 75.500301 35.929073 C 75.496937 35.924294 75.415035 35.806083 75.415035 35.806083 C 75.415035 35.806083 75.310657 35.884388 75.210913 35.961629 C 75.210593 35.961872 75.210199 35.961901 75.20988 35.962146 L 75.20988 35.962663 C 74.782216 36.294072 73.740029 37.186645 74.159298 37.779089 C 78.284202 43.607753 84.573209 53.718655 87.366243 59.488359 C 90.08839 65.111627 90.221366 72.603837 90.221366 72.603837 C 90.256682 73.622427 91.534347 73.157249 91.714815 73.087012 C 91.879065 73.055368 92.00627 73.025 92.00627 73.025 C 92.165726 70.193337 91.588517 62.90035 89.440535 58.107048 C 86.186659 50.84589 77.416488 38.186508 76.143156 36.331116 z " /><path
         id="path1205"
         style="fill:url(#linearGradient1207);fill-opacity:1;stroke:none;stroke-width:0.426588px;stroke-linecap:butt;stroke-linejoin:miter;stroke-opacity:1"
         d="m 100.05031,72.11129 c 1.52522,6.766934 0.0813,10.475916 -6.732361,13.423677 -4.909542,2.123989 -10.831092,-1.02089 -13.67722,-1.796645 0.173832,0.587854 0.398371,1.168229 0.678209,1.733016 1.333825,2.692011 5.997071,6.233175 10.653046,5.706451 4.760952,-0.5386 8.367914,-2.328363 10.842166,-5.453165 2.52143,-3.184363 2.06486,-9.107239 -0.5074,-12.364397 -0.39613,-0.501617 -0.81791,-0.912462 -1.25644,-1.248937 z"
         sodipodi:nodetypes="cscssssc" /><path
         id="path1218"
         style="fill:url(#linearGradient1226);fill-opacity:1;stroke:none;stroke-width:0.426588px;stroke-linecap:butt;stroke-linejoin:miter;stroke-opacity:1"
         d="m 103.20473,77.587785 c -0.51887,6.489875 -2.45732,7.739345 -4.053423,9.025009 -2.779158,2.238647 -6.207284,2.881648 -7.608536,3.170424 -0.961932,0.198232 -4.342282,0.277174 -7.160414,-0.262625 1.917716,1.162054 4.254463,1.92137 6.589627,1.657196 4.760952,-0.5386 8.367914,-2.328363 10.842166,-5.453165 1.62791,-2.05591 2.01324,-5.252283 1.39058,-8.136839 z"
         sodipodi:nodetypes="csscssc" /><path
         id="path2701"
         style="mix-blend-mode:normal;fill:url(#radialGradient2709);fill-opacity:1;stroke:none;stroke-width:0.264583px;stroke-linecap:butt;stroke-linejoin:miter;stroke-opacity:1;filter:url(#filter8)"
         d="m 97.441597,55.515474 c -0.226342,0.0019 -0.528406,0.05356 -0.932242,0.172083 -0.838982,0.406378 -1.678302,1.363322 -2.045354,2.320272 0.498463,2.702721 1.873795,2.62777 2.949691,3.2644 1.437815,0.0019 2.781078,-0.514721 4.248838,-1.308964 0.0547,-0.532329 0.11979,-1.419402 0.11679,-1.955436 -0.0788,-0.957721 -0.28606,-1.703239 -1.49862,-1.289844 -0.573023,0.127119 -1.459944,0.298872 -1.922879,0.385506 -0.492576,-0.445902 0.174334,-1.597096 -0.916224,-1.588017 z"
         transform="matrix(1.6123024,0,0,1.6123024,-71.288227,-16.741563)" /><path
         style="opacity:0.776265;mix-blend-mode:normal;fill:url(#radialGradient2748);fill-opacity:1;stroke:none;stroke-width:0.264583px;stroke-linecap:butt;stroke-linejoin:miter;stroke-opacity:1;filter:url(#filter3667)"
         d="m 94.464247,58.007811 c 0.190822,1.994872 1.812125,2.75624 2.888022,3.392871 1.437816,0.0019 2.842451,-0.643312 4.310211,-1.437556 0.0547,-0.53233 0.11965,-1.419278 0.11665,-1.955313 -0.0788,-0.957722 -1.59171,-0.629311 -2.574403,-0.45554 -4.078535,-0.225006 -1.517152,-2.30686 -2.756987,-2.37957 -0.838982,0.406378 -1.493385,1.170305 -1.983493,2.835108 z"
         id="path2746"
         sodipodi:nodetypes="ccccccc"
         transform="matrix(0.1807352,0.98189651,1.2302802,-0.2482655,5.2986828,-7.7157876)" /><path
         id="path3549"
         style="mix-blend-mode:normal;fill:url(#radialGradient3557);stroke-width:0;stroke-linecap:round;stroke-linejoin:round;paint-order:markers stroke fill;filter:url(#filter5)"
         class="UnoptimicedTransforms"
         transform="matrix(0.7795044,0.03868189,-0.08989897,1.2211575,17.456202,0.63811045)"
         d="m 103.16126,55.92533 c 0,0.195479 -1.1476,0.56483 -2.23731,0.600664 -1.163926,0.03828 -2.263804,-0.357371 -2.263804,-0.552853 0,-0.195479 1.110035,-0.373437 2.076804,-0.364296 1.02117,0.0097 2.42431,0.121006 2.42431,0.316485 z"
         sodipodi:nodetypes="sssss" /><path
         id="path3617"
         style="mix-blend-mode:normal;fill:url(#radialGradient3619);fill-opacity:1;stroke:none;stroke-width:0.264583px;stroke-linecap:butt;stroke-linejoin:miter;stroke-opacity:1;filter:url(#filter2767)"
         d="m 76.028958,53.346401 c -0.226342,0.0019 -0.528406,0.05356 -0.932242,0.172083 -0.838982,0.406378 -1.678302,1.363322 -2.045354,2.320272 0.498463,2.702721 1.873795,2.62777 2.949691,3.2644 1.437815,0.0019 2.781078,-0.514721 4.248838,-1.308964 0.0547,-0.532329 0.11979,-1.419402 0.11679,-1.955436 -0.0788,-0.957721 -0.28606,-1.703239 -1.49862,-1.289844 -0.573023,0.127119 -1.459944,0.298872 -1.922879,0.385506 -0.492576,-0.445902 0.174334,-1.597096 -0.916224,-1.588017 z"
         transform="matrix(1.6123024,0,0,1.6123024,-71.288227,-16.741563)" /><path
         id="path3677"
         style="fill:url(#linearGradient3685);fill-opacity:1;stroke:none;stroke-width:0.426588px;stroke-linecap:butt;stroke-linejoin:miter;stroke-opacity:1"
         d="m 70.675707,74.016774 c -0.903276,2.815307 -1.792182,6.093529 -4.242675,8.664415 -4.319257,4.531458 -10.906505,5.200101 -16.232732,3.678318 -1.531139,-0.43747 -3.067183,-1.493815 -4.520836,-2.721167 0.02027,0.05886 0.03986,0.117585 0.06082,0.176634 2.25959,6.36251 11.937669,7.722463 15.492988,6.982885 4.088845,-0.850564 9.389025,-3.757185 10.51057,-10.711366 0.320018,-1.984279 -0.08044,-4.158281 -1.068137,-6.069719 z"
         sodipodi:nodetypes="cssccssc" /><path
         id="path5007"
         style="fill:url(#linearGradient5015);fill-opacity:1;stroke:none;stroke-width:0.426588px;stroke-linecap:butt;stroke-linejoin:miter;stroke-opacity:1"
         d="m 71.757177,77.393653 c -0.563002,2.55422 -1.378196,5.475366 -2.40706,7.062871 -1.906531,2.941728 -7.110797,6.102982 -10.27228,5.833927 -2.502983,-0.213012 -6.523132,-1.007751 -9.58824,-1.97047 3.840327,2.49122 9.271765,2.992087 11.743677,2.477878 4.088846,-0.850564 9.389026,-3.757185 10.510571,-10.711366 0.140899,-0.873614 0.140479,-1.784372 0.01338,-2.69284 z" /><path
         id="path5026"
         style="opacity:1;mix-blend-mode:normal;fill:url(#radialGradient5028);stroke-width:0;stroke-linecap:round;stroke-linejoin:round;paint-order:markers stroke fill;filter:url(#filter1)"
         class="UnoptimicedTransforms"
         transform="matrix(1.0192469,0.14308191,-0.23765183,1.2069521,-29.813323,-11.214844)"
         d="m 102.74055,55.938496 c 0,0.195479 -1.41517,0.614243 -2.3817,0.614243 -0.966537,0 -1.938861,-0.343557 -1.938861,-0.539035 0,-0.195479 1.311015,-0.515388 2.277551,-0.515388 0.96654,0 2.04301,0.244701 2.04301,0.44018 z"
         sodipodi:nodetypes="sssss" /><path
         style="fill:#a0b93d;fill-opacity:1;stroke:none;stroke-width:0.426588px;stroke-linecap:butt;stroke-linejoin:miter;stroke-opacity:1"
         d="m 72.345651,25.379205 c 0.08968,1.614092 3.981397,7.14788 0.02037,13.475756 -4.230039,6.955579 -7.473018,9.805395 -10.018261,15.235138 -2.706843,5.774478 -4.008965,16.128242 -4.008965,16.128242 -0.158521,0.951113 1.125236,1.044084 2.000321,0.707428 0.399529,-2.270584 1.593988,-11.420009 3.597755,-15.391846 2.003766,-3.971838 4.304246,-7.532435 8.339476,-12.82307 2.539094,-3.329035 6.919281,-11.368979 6.187359,-18.741411 -1.930546,-2.356636 -5.84904,0.333708 -6.118056,1.409763 z"
         id="path5817"
         sodipodi:nodetypes="ccscczscc" /><path
         style="fill:#a0b93d;fill-opacity:1;stroke:none;stroke-width:0.426588px;stroke-linecap:butt;stroke-linejoin:miter;stroke-opacity:1"
         d="m 90.221498,72.603908 c 0,0 -0.13315,-7.492086 -2.855299,-13.11536 -2.793037,-5.769709 -9.081835,-15.880978 -13.206743,-21.709647 -0.518007,-0.731966 1.255406,-1.97278 1.255406,-1.97278 0,0 10.195417,14.463497 13.719791,22.32828 2.147989,4.793312 2.804825,12.098689 2.64532,14.930358 0,0 -1.52057,0.632408 -1.558475,-0.460851 z"
         id="path6607"
         sodipodi:nodetypes="ssscscs" /><path
         id="path16136"
         style="fill:#6b8425;fill-opacity:1;stroke:none;stroke-width:0.426588px;stroke-linecap:butt;stroke-linejoin:miter;stroke-opacity:1"
         d="m 76.225503,31.804729 c -1.076064,3.317858 -1.953886,7.131677 -5.917072,11.864613 -4.159391,4.967249 -7.348244,10.175204 -8.547267,14.167398 -1.628695,5.422813 -2.235339,11.068945 -2.452242,13.275881 0.587657,-0.01225 0.824973,-0.107939 1.03035,-0.186944 0.399528,-2.270582 1.593909,-11.419507 3.597674,-15.39134 2.003763,-3.971834 4.304075,-7.532849 8.339302,-12.823479 2.539091,-3.329032 6.919118,-11.369134 6.187197,-18.74156 -0.187159,-0.329023 -1.398586,-1.080447 -1.381497,-0.843252 0.246777,3.425318 -0.06255,5.9127 -0.856445,8.678683 z"
         sodipodi:nodetypes="sssccsscss" /><path
         id="path16141"
         style="fill:#6b8425;fill-opacity:1;stroke:none;stroke-width:0.426588px;stroke-linecap:butt;stroke-linejoin:miter;stroke-opacity:1"
         d="m 75.209876,35.962086 -0.06415,0.83068 c 0,0 6.27052,9.822316 7.001107,10.748243 1.307601,1.657218 6.154062,10.194524 7.359374,14.11178 1.075109,3.494083 1.561278,9.01767 1.654082,11.584775 0.332247,-0.01225 0.846014,-0.212441 0.846014,-0.212441 0.159456,-2.831666 -0.4176,-10.124934 -2.565584,-14.918241 -3.52437,-7.864774 -13.925027,-22.650136 -13.789504,-22.495251 1.53349,1.989259 0.08534,-0.05249 -0.441339,0.350455 z"
         sodipodi:nodetypes="ccssccssc" /><path
         style="fill:#ffffff;fill-opacity:1;stroke:none;stroke-width:0.426588px;stroke-linecap:butt;stroke-linejoin:miter;stroke-opacity:1"
         d="m 73.631691,26.47341 c 1.823155,3.849239 1.161705,7.299057 -0.114656,11.745814 0,0 2.934896,-7.175301 2.918274,-10.458582 -0.01817,-3.589002 -3.137321,-3.623156 -2.803618,-1.287232 z"
         id="path16146"
         sodipodi:nodetypes="ccsc" /></g></g></svg>
