<?xml version="1.0" encoding="UTF-8" standalone="no"?>
<!-- Created with Inkscape (http://www.inkscape.org/) -->

<svg
   width="210mm"
   height="297mm"
   viewBox="0 0 210 297"
   version="1.1"
   id="svg5"
   inkscape:version="1.2.2 (732a01da63, 2022-12-09)"
   sodipodi:docname="pear.svg"
   xml:space="preserve"
   xmlns:inkscape="http://www.inkscape.org/namespaces/inkscape"
   xmlns:sodipodi="http://sodipodi.sourceforge.net/DTD/sodipodi-0.dtd"
   xmlns:xlink="http://www.w3.org/1999/xlink"
   xmlns="http://www.w3.org/2000/svg"
   xmlns:svg="http://www.w3.org/2000/svg"><sodipodi:namedview
     id="namedview7"
     pagecolor="#ffffff"
     bordercolor="#666666"
     borderopacity="1.0"
     inkscape:showpageshadow="2"
     inkscape:pageopacity="0.0"
     inkscape:pagecheckerboard="0"
     inkscape:deskcolor="#d1d1d1"
     inkscape:document-units="mm"
     showgrid="false"
     inkscape:zoom="3.3638608"
     inkscape:cx="246.29438"
     inkscape:cy="186.24433"
     inkscape:window-width="1920"
     inkscape:window-height="1058"
     inkscape:window-x="-8"
     inkscape:window-y="-8"
     inkscape:window-maximized="1"
     inkscape:current-layer="layer1" /><defs
     id="defs2"><linearGradient
       inkscape:collect="always"
       id="linearGradient8776"><stop
         style="stop-color:#323d09;stop-opacity:1;"
         offset="0"
         id="stop8772" /><stop
         style="stop-color:#bacf27;stop-opacity:1;"
         offset="1"
         id="stop8774" /></linearGradient><linearGradient
       inkscape:collect="always"
       id="linearGradient5456"><stop
         style="stop-color:#313300;stop-opacity:1;"
         offset="0"
         id="stop5452" /><stop
         style="stop-color:#a1b600;stop-opacity:1;"
         offset="1"
         id="stop5454" /></linearGradient><linearGradient
       inkscape:collect="always"
       id="linearGradient12550"><stop
         style="stop-color:#bfd709;stop-opacity:1;"
         offset="0"
         id="stop12546" /><stop
         style="stop-color:#4a510d;stop-opacity:0.87160486;"
         offset="1"
         id="stop12548" /></linearGradient><inkscape:path-effect
       effect="bend_path"
       id="path-effect10683"
       is_visible="true"
       lpeversion="1"
       bendpath="m 81.375107,54.316952 c 1.106038,-0.01405 0.887507,0.234706 1.724167,0"
       prop_scale="1.0275047"
       scale_y_rel="false"
       vertical="false"
       hide_knot="false"
       bendpath-nodetypes="cc" /><linearGradient
       inkscape:collect="always"
       id="linearGradient10657"><stop
         style="stop-color:#b5cb09;stop-opacity:1;"
         offset="0"
         id="stop10653" /><stop
         style="stop-color:#282e06;stop-opacity:1;"
         offset="1"
         id="stop10655" /></linearGradient><linearGradient
       inkscape:collect="always"
       id="linearGradient8469"><stop
         style="stop-color:#cade3c;stop-opacity:1;"
         offset="0"
         id="stop8465" /><stop
         style="stop-color:#606e1e;stop-opacity:0.32592595;"
         offset="1"
         id="stop8467" /></linearGradient><linearGradient
       inkscape:collect="always"
       id="linearGradient4650"><stop
         style="stop-color:#b5cb09;stop-opacity:1;"
         offset="0"
         id="stop4646" /><stop
         style="stop-color:#434b0c;stop-opacity:0.87160492;"
         offset="1"
         id="stop4648" /></linearGradient><inkscape:path-effect
       effect="mirror_symmetry"
       start_point="71.969015,64.257331"
       end_point="71.969015,101.3072"
       center_point="71.969015,82.782265"
       id="path-effect1918"
       is_visible="true"
       lpeversion="1.2"
       lpesatellites=""
       mode="free"
       discard_orig_path="false"
       fuse_paths="false"
       oposite_fuse="false"
       split_items="false"
       split_open="false"
       link_styles="false" /><inkscape:path-effect
       effect="mirror_symmetry"
       start_point="71.969015,64.418167"
       end_point="71.969015,101.46451"
       center_point="71.969015,82.941339"
       id="path-effect371"
       is_visible="true"
       lpeversion="1.2"
       lpesatellites=""
       mode="free"
       discard_orig_path="false"
       fuse_paths="false"
       oposite_fuse="false"
       split_items="false"
       split_open="false"
       link_styles="false" /><linearGradient
       inkscape:collect="always"
       xlink:href="#linearGradient10657"
       id="linearGradient4584"
       x1="61.901218"
       y1="67.171082"
       x2="83.13797"
       y2="97.767754"
       gradientUnits="userSpaceOnUse" /><linearGradient
       inkscape:collect="always"
       xlink:href="#linearGradient8469"
       id="linearGradient7737"
       gradientUnits="userSpaceOnUse"
       x1="61.901218"
       y1="67.171082"
       x2="83.13797"
       y2="97.767754" /><filter
       inkscape:collect="always"
       style="color-interpolation-filters:sRGB"
       id="filter10661"
       x="-0.024494479"
       y="-0.0094898992"
       width="1.048989"
       height="1.0189798"><feGaussianBlur
         inkscape:collect="always"
         stdDeviation="0.017596902"
         id="feGaussianBlur10663" /></filter><filter
       inkscape:collect="always"
       style="color-interpolation-filters:sRGB"
       id="filter10679"
       x="-0.039617051"
       y="-0.015760378"
       width="1.0792341"
       height="1.0315208"><feGaussianBlur
         inkscape:collect="always"
         stdDeviation="0.030098759"
         id="feGaussianBlur10681" /></filter><linearGradient
       inkscape:collect="always"
       xlink:href="#linearGradient4650"
       id="linearGradient12542"
       x1="71.418434"
       y1="64.339516"
       x2="72.48027"
       y2="67.367714"
       gradientUnits="userSpaceOnUse" /><linearGradient
       inkscape:collect="always"
       xlink:href="#linearGradient12550"
       id="linearGradient12544"
       x1="71.772385"
       y1="65.047401"
       x2="72.165657"
       y2="67.446373"
       gradientUnits="userSpaceOnUse" /><filter
       inkscape:collect="always"
       style="color-interpolation-filters:sRGB"
       id="filter12552"
       x="-0.061683087"
       y="-0.22496184"
       width="1.1233662"
       height="1.4499237"><feGaussianBlur
         inkscape:collect="always"
         stdDeviation="0.12533461"
         id="feGaussianBlur12554" /></filter><filter
       inkscape:collect="always"
       style="color-interpolation-filters:sRGB"
       id="filter12556"
       x="-0.02189395"
       y="-0.089400295"
       width="1.0437879"
       height="1.1788006"><feGaussianBlur
         inkscape:collect="always"
         stdDeviation="0.035158748"
         id="feGaussianBlur12558" /></filter><filter
       inkscape:collect="always"
       style="color-interpolation-filters:sRGB"
       id="filter19975"
       x="-0.06225281"
       y="-0.039551734"
       width="1.1245056"
       height="1.0791035"><feGaussianBlur
         inkscape:collect="always"
         stdDeviation="1.0202845"
         id="feGaussianBlur19977" /></filter><filter
       inkscape:collect="always"
       style="color-interpolation-filters:sRGB"
       id="filter938"
       x="-0.28353389"
       y="-0.048281634"
       width="1.5670678"
       height="1.0965633"><feGaussianBlur
         inkscape:collect="always"
         stdDeviation="0.28900227"
         id="feGaussianBlur940" /></filter><filter
       inkscape:collect="always"
       style="color-interpolation-filters:sRGB"
       id="filter947"
       x="-0.054780042"
       y="-0.098504018"
       width="1.1095601"
       height="1.197008"><feGaussianBlur
         inkscape:collect="always"
         stdDeviation="0.43859141"
         id="feGaussianBlur949" /></filter><linearGradient
       inkscape:collect="always"
       xlink:href="#linearGradient5456"
       id="linearGradient5458"
       x1="72.643944"
       y1="102.17746"
       x2="72.51355"
       y2="63.328876"
       gradientUnits="userSpaceOnUse" /><linearGradient
       inkscape:collect="always"
       xlink:href="#linearGradient8776"
       id="linearGradient8778"
       x1="69.450111"
       y1="101.01607"
       x2="68.913231"
       y2="65.535522"
       gradientUnits="userSpaceOnUse" /><filter
       inkscape:collect="always"
       style="color-interpolation-filters:sRGB"
       id="filter8792"
       x="-0.041682372"
       y="-0.032664597"
       width="1.0833647"
       height="1.0653258"><feGaussianBlur
         inkscape:collect="always"
         stdDeviation="0.3657765"
         id="feGaussianBlur8794" /></filter><filter
       inkscape:collect="always"
       style="color-interpolation-filters:sRGB"
       id="filter8796"
       x="-0.019092867"
       y="-0.014965125"
       width="1.0381857"
       height="1.0299302"><feGaussianBlur
         inkscape:collect="always"
         stdDeviation="0.2310233"
         id="feGaussianBlur8798" /></filter><filter
       inkscape:collect="always"
       style="color-interpolation-filters:sRGB"
       id="filter8800"
       x="-0.012364018"
       y="-0.0096910053"
       width="1.024728"
       height="1.019382"><feGaussianBlur
         inkscape:collect="always"
         stdDeviation="0.14960437"
         id="feGaussianBlur8802" /></filter></defs><g
     inkscape:label="Layer 1"
     inkscape:groupmode="layer"
     id="layer1"><g
       id="g971"
       inkscape:export-filename="g971.png"
       inkscape:export-xdpi="142.48129"
       inkscape:export-ydpi="142.48129"><path
         id="path19964"
         style="display:inline;mix-blend-mode:normal;fill:#393939;fill-opacity:1;stroke:none;stroke-width:0.349309px;stroke-linecap:butt;stroke-linejoin:miter;stroke-opacity:1;filter:url(#filter19975);opacity:0.98788927"
         d="m 90.029647,18.474841 c -2.857756,-0.02793 -5.335889,1.38233 -7.414018,2.352828 -0.88875,0.33446 -1.496481,0.531934 -2.022615,0.683163 -0.01918,-0.751707 -0.07335,-1.412248 -0.173117,-1.930115 a 0.17752698,1.1299124 88.274497 0 0 0.0072,-0.02222 0.17752698,1.1299124 88.274497 0 0 -1.134298,-0.143144 0.17752698,1.1299124 88.274497 0 0 -1.105875,0.178284 c -0.0015,2.75e-4 -0.0124,0.0021 -0.0124,0.0021 l -0.01964,-0.117822 c 0.0059,0.04505 0.01131,0.08988 0.01705,0.134875 a 0.17752698,1.1299124 88.274497 0 0 -0.0036,0.01395 0.17752698,1.1299124 88.274497 0 0 0.0078,0.0186 c 0.518832,4.08439 0.564853,7.919809 0.500228,10.558529 -0.04815,7.83e-4 -0.09733,7.87e-4 -0.144178,0.0026 -2.987461,-0.114617 -8.673028,1.833589 -10.121346,5.75262 -1.344022,3.636815 -1.469794,7.257275 -2.024165,9.695016 -1.082633,4.760664 -5.775908,9.82497 -6.924642,13.743347 -0.66364,2.263699 -1.464409,9.580414 1.810742,14.595492 3.409175,5.220298 8.310323,6.392374 17.259411,6.392374 8.949089,0 13.84972,-1.172076 17.258895,-6.392374 3.275151,-5.015078 2.474898,-12.331793 1.811259,-14.595492 -1.148734,-3.918377 -5.842526,-8.982683 -6.925158,-13.743347 -0.554372,-2.437741 -0.680144,-6.058201 -2.024166,-9.695016 -1.233002,-3.336403 -5.53579,-5.243389 -8.631515,-5.66632 0.236191,-2.063189 0.49318,-4.720809 0.561723,-7.005774 1.494048,1.135012 3.723334,2.687628 5.484937,3.308842 2.325581,0.820094 5.146442,-0.227774 7.519954,0.490409 1.34951,0.408342 3.501078,2.074292 3.501078,2.074292 0,0 -2.01877,-4.522229 -4.149101,-6.082316 -0.247293,-0.181099 -0.509969,-0.347442 -0.784965,-0.500745 1.663273,-0.435533 3.312274,-0.681413 5.286499,-0.232544 2.466588,1.145239 -2.256843,-2.233867 -2.611726,-2.372465 -1.702623,-1.073578 -3.303304,-1.482952 -4.800224,-1.497583 z"
         transform="matrix(1.0366187,0,0,1.0439911,-2.8757389,-1.9385114)" /><path
         id="path942"
         style="display:inline;fill:#93c632;fill-opacity:1;stroke:none;stroke-width:0.349309px;stroke-linecap:butt;stroke-linejoin:miter;stroke-opacity:1;filter:url(#filter947)"
         d="m 90.029647,18.474841 c -2.857756,-0.02793 -5.335889,1.38233 -7.414018,2.352828 -1.733285,0.65228 -2.402984,0.785675 -3.468005,1.064535 0.01466,0.0084 0.02968,0.01651 0.04444,0.0248 -0.163031,0.03658 -0.255798,0.05891 -0.255798,0.05891 0,0 4.214419,3.591061 7.131865,4.619873 2.325581,0.820094 5.146442,-0.227774 7.519954,0.490409 1.34951,0.408342 3.501078,2.074292 3.501078,2.074292 0,0 -2.01877,-4.522229 -4.149101,-6.082316 -0.247293,-0.181099 -0.509969,-0.347442 -0.784965,-0.500745 1.663273,-0.435533 3.312274,-0.681413 5.286499,-0.232544 2.466588,1.145239 -2.256843,-2.233867 -2.611726,-2.372465 -1.702623,-1.073578 -3.303304,-1.482952 -4.800224,-1.497583 z" /><path
         style="display:inline;fill:#ad6e11;fill-opacity:1;stroke:none;stroke-width:0.358375px;stroke-linecap:butt;stroke-linejoin:miter;stroke-opacity:1;filter:url(#filter938)"
         d="m 78.154891,19.477861 c 0.979328,7.533293 0.338998,14.27559 0.338998,14.27559 0.678775,0.151514 1.092328,-0.03767 1.092328,-0.03767 0,0 1.536299,-10.581919 0.828662,-14.16259 -0.594676,-0.262997 -2.240324,0.04264 -2.240324,0.04264 z"
         id="path936"
         sodipodi:nodetypes="cscccc" /><path
         style="display:inline;fill:url(#linearGradient8778);fill-opacity:1;stroke:url(#linearGradient5458);stroke-width:0.66445737;stroke-linecap:round;stroke-linejoin:round;stroke-opacity:1;stroke-dasharray:none;paint-order:stroke markers fill;filter:url(#filter8792);opacity:1"
         d="m 64.496822,68.50821 c -0.992274,2.685012 -1.085153,5.357822 -1.494438,7.157574 -0.799293,3.514735 -4.264459,7.253565 -5.112554,10.146451 -0.489956,1.671259 -1.08087,7.073123 1.33713,10.775688 2.516949,3.854077 6.135062,4.719277 12.742055,4.719277 6.606993,0 10.225106,-0.8652 12.742055,-4.719277 2.418,-3.702565 1.827086,-9.104429 1.33713,-10.775688 -0.848095,-2.892886 -4.313261,-6.631716 -5.112554,-10.146451 -0.409285,-1.799752 -0.502164,-4.472562 -1.494438,-7.157574 -1.069274,-2.893369 -5.26659,-4.331972 -7.472193,-4.247352 -2.205603,-0.08462 -6.402919,1.353983 -7.472193,4.247352 z"
         id="path907"
         class="UnoptimicedTransforms"
         sodipodi:nodetypes="sssscsssscs"
         transform="matrix(1.3544887,0,0,1.3544887,-18.949249,-56.834393)" /><path
         style="fill:#93c632;fill-opacity:1;stroke:none;stroke-width:0.349309px;stroke-linecap:butt;stroke-linejoin:miter;stroke-opacity:1"
         d="m 79.14783,21.892336 c 1.065022,-0.27886 1.734628,-0.412469 3.467915,-1.064749 3.166676,-1.478856 7.26129,-3.978381 12.21438,-0.855242 0.354884,0.138598 5.078099,3.517606 2.611509,2.372366 -2.483669,-0.564699 -4.452425,-0.03094 -6.582703,0.598378 -3.671427,0.478153 -8.755411,0.640409 -11.711101,-1.050753 z"
         id="path14626"
         sodipodi:nodetypes="cccccc" /><path
         style="fill:url(#linearGradient4584);fill-opacity:1;stroke:none;stroke-width:0.264583px;stroke-linecap:butt;stroke-linejoin:miter;stroke-opacity:1;filter:url(#filter8800)"
         d="m 64.496822,68.50821 c -0.992274,2.685012 -1.085153,5.357822 -1.494438,7.157574 -0.799293,3.514735 -4.264459,7.253565 -5.112554,10.146451 -0.489956,1.671259 -1.08087,7.073123 1.33713,10.775688 2.516949,3.854077 6.135062,4.719277 12.742055,4.719277 6.606993,0 10.225106,-0.8652 12.742055,-4.719277 2.418,-3.702565 1.827086,-9.104429 1.33713,-10.775688 -0.848095,-2.892886 -4.313261,-6.631716 -5.112554,-10.146451 -0.409285,-1.799752 -0.502164,-4.472562 -1.494438,-7.157574 -1.069274,-2.893369 -5.26659,-4.331972 -7.472193,-4.247352 -2.205603,-0.08462 -6.402919,1.353983 -7.472193,4.247352 z"
         id="path369"
         class="UnoptimicedTransforms"
         sodipodi:nodetypes="sssscsssscs"
         transform="matrix(1.3544887,0,0,1.3544887,-18.949249,-56.834393)" /><path
         style="fill:url(#linearGradient7737);fill-opacity:1;stroke:none;stroke-width:0.264583px;stroke-linecap:butt;stroke-linejoin:miter;stroke-opacity:1;filter:url(#filter8796)"
         d="m 64.496822,68.50821 c -0.992274,2.685012 -1.085153,5.357822 -1.494438,7.157574 -0.799293,3.514735 -4.264459,7.253565 -5.112554,10.146451 -0.489956,1.671259 -1.08087,7.073123 1.33713,10.775688 2.516949,3.854077 6.135062,4.719277 12.742055,4.719277 6.606993,0 10.225106,-0.8652 12.742055,-4.719277 2.418,-3.702565 1.827086,-9.104429 1.33713,-10.775688 -0.848095,-2.892886 -4.313261,-6.631716 -5.112554,-10.146451 -0.409285,-1.799752 -0.502164,-4.472562 -1.494438,-7.157574 -1.069274,-2.893369 -5.26659,-4.331972 -7.472193,-4.247352 -2.205603,-0.08462 -6.402919,1.353983 -7.472193,4.247352 z"
         id="path7735"
         class="UnoptimicedTransforms"
         sodipodi:nodetypes="sssscsssscs"
         transform="matrix(1.0353178,0,0,1.1819587,1.304474,-41.593145)" /><ellipse
         style="mix-blend-mode:normal;fill:#deec66;fill-opacity:1;stroke:none;stroke-width:3.08046;stroke-linecap:round;stroke-linejoin:round;stroke-opacity:1;paint-order:fill markers stroke;filter:url(#filter10661)"
         id="path10659"
         cx="82.23719"
         cy="54.316952"
         rx="0.86208338"
         ry="2.2251325"
         transform="matrix(1.3131085,0.33224342,-0.3199142,1.3161666,-18.949249,-56.834393)" /><path
         id="path14628"
         style="fill:#7b9d3f;fill-opacity:1;stroke:none;stroke-width:0.349309px;stroke-linecap:butt;stroke-linejoin:miter;stroke-opacity:1"
         d="m 90.647246,18.503596 c -3.119936,-0.260297 -5.804653,1.283886 -8.031217,2.323708 -1.733283,0.652276 -2.403525,0.786098 -3.468549,1.06496 0.192377,0.110066 0.394337,0.212372 0.603777,0.307167 1.206557,-0.07878 2.433361,-0.353765 3.23364,-0.551236 1.088184,-0.268509 4.567638,-2.065413 7.081669,-1.918062 2.785161,0.163255 5.167297,1.076602 7.741831,2.536467 0.830889,0.413352 -1.770638,-1.580789 -2.978102,-2.294336 -1.470441,-0.927181 -2.865746,-1.358767 -4.183049,-1.468668 z"
         sodipodi:nodetypes="scccssccs" /><path
         style="mix-blend-mode:normal;fill:#deec66;fill-opacity:0.781705;stroke:none;stroke-width:3.08046;stroke-linecap:round;stroke-linejoin:round;stroke-opacity:1;paint-order:fill markers stroke;filter:url(#filter10679)"
         id="ellipse10665"
         transform="matrix(-1.8562098,-0.14499139,-0.98730467,2.7358277,272.55878,-79.330754)"
         inkscape:path-effect="#path-effect10683"
         sodipodi:type="arc"
         sodipodi:cx="82.23719"
         sodipodi:cy="54.316952"
         sodipodi:rx="0.86208338"
         sodipodi:ry="2.2251325"
         d="m 83.002068,54.341001 c 0.132234,0.613643 0.137238,1.148221 -0.119495,1.624213 -0.237701,0.440706 -0.652204,0.700564 -0.927314,0.690289 -0.288877,-0.01079 -0.397699,-0.277694 -0.479727,-0.715912 -0.05789,-0.309273 -0.177223,-1.144995 -0.20093,-1.61954 -0.03155,-0.631565 0.04697,-1.165405 0.307418,-1.622294 0.246549,-0.432499 0.576981,-0.649784 0.751745,-0.623247 0.188466,0.02862 0.213222,0.294972 0.291804,0.713992 0.07786,0.415177 0.251508,0.972472 0.376499,1.552499 z"
         class="UnoptimicedTransforms" /><path
         style="fill:#95d236;fill-opacity:1;stroke:none;stroke-width:0.349309px;stroke-linecap:butt;stroke-linejoin:miter;stroke-opacity:1"
         d="m 78.93634,21.975694 c 0,0 4.214527,3.591322 7.131975,4.620135 2.325584,0.820095 5.14618,-0.227725 7.519694,0.490459 1.349511,0.408342 3.501314,2.074262 3.501314,2.074262 0,0 -2.018867,-4.52246 -4.1492,-6.082549 -1.56606,-1.146865 -3.745475,-1.710963 -5.805432,-2.013752 -2.696948,-0.396417 -8.198352,0.911447 -8.198351,0.911445 z"
         id="path14681"
         sodipodi:nodetypes="csscssc" /><ellipse
         style="mix-blend-mode:normal;fill:url(#linearGradient12544);fill-opacity:1;stroke:none;stroke-width:3.90001;stroke-linecap:round;stroke-linejoin:round;stroke-opacity:1;paint-order:fill markers stroke;filter:url(#filter12552)"
         id="path10770"
         cx="72.047668"
         cy="66.266548"
         rx="2.4382944"
         ry="0.66856462"
         transform="matrix(1.3544887,0,0,1.3544887,-18.949249,-56.834393)" /><ellipse
         style="mix-blend-mode:normal;fill:url(#linearGradient12542);fill-opacity:1;stroke:none;stroke-width:2.91296;stroke-linecap:round;stroke-linejoin:round;stroke-opacity:1;paint-order:fill markers stroke;filter:url(#filter12556)"
         id="ellipse12540"
         cx="72.047668"
         cy="66.463188"
         rx="1.9270391"
         ry="0.47192797"
         transform="matrix(0.93076081,0,0,1.162982,11.579356,-43.999716)" /><path
         id="path15166"
         style="fill:#8eb73f;fill-opacity:1;stroke:none;stroke-width:0.349309px;stroke-linecap:butt;stroke-linejoin:miter;stroke-opacity:1"
         d="m 86.310341,20.980482 c -2.847751,-0.18462 -7.331043,0.965459 -7.331043,0.965459 0,0 0.334133,-0.229051 0.86661,0.263561 1.65767,0.0502 3.977678,0.148017 5.373041,0.330151 2.345741,0.306187 4.50477,0.483944 6.540521,1.506973 1.358235,0.68256 3.226824,2.291277 4.509369,3.473125 -0.784261,-1.456223 -2.034648,-3.494041 -3.328899,-4.441853 -1.566046,-1.146859 -3.745564,-1.710952 -5.805526,-2.01374 -0.252835,-0.03718 -0.529464,-0.06458 -0.824073,-0.08368 z"
         sodipodi:nodetypes="sccsscsss" /><path
         style="fill:#ad6e11;fill-opacity:1;stroke:none;stroke-width:0.358375px;stroke-linecap:butt;stroke-linejoin:miter;stroke-opacity:1"
         d="m 78.154891,19.477861 c 0.979328,7.533293 0.338998,14.27559 0.338998,14.27559 0.678775,0.151514 1.092328,-0.03767 1.092328,-0.03767 0,0 1.536299,-10.581919 0.828662,-14.16259 -0.594676,-0.262997 -2.240324,0.04264 -2.240324,0.04264 z"
         id="path13330"
         sodipodi:nodetypes="cscccc" /><path
         style="fill:#d09242;fill-opacity:0.817248;stroke:none;stroke-width:0.393731px;stroke-linecap:butt;stroke-linejoin:miter;stroke-opacity:1"
         d="m 78.796562,21.930646 c 0.133482,1.266893 0.280416,3.696277 0.09235,9.267244 0,0 0.511807,-4.978066 0.497412,-6.109562 -0.09747,-7.660627 -0.955227,-4.569912 -0.589762,-3.157682 z"
         id="path17323"
         sodipodi:nodetypes="ccsc" /><path
         id="path17265"
         style="fill:#73470c;fill-opacity:1;stroke:none;stroke-width:0.358375px;stroke-linecap:butt;stroke-linejoin:miter;stroke-opacity:1"
         d="m 80.501248,20.111966 c -0.04205,0.472837 -0.07889,1.006867 -0.104993,1.624587 -0.114548,2.710996 -0.693502,8.772304 -1.110823,12.055963 0.193773,-0.02819 0.30098,-0.077 0.30098,-0.077 0,0 1.392852,-9.595391 0.914836,-13.603555 z" /><ellipse
         style="fill:#975e10;fill-opacity:1;stroke:none;stroke-width:3.77912;stroke-linecap:round;stroke-linejoin:round;stroke-opacity:1;paint-order:fill markers stroke"
         id="path19880"
         cx="78.672058"
         cy="21.971584"
         rx="1.1299124"
         ry="0.17752698"
         transform="rotate(-1.7255027)" /><path
         style="fill:#fafafa;fill-opacity:0.492105;stroke:none;stroke-width:0.264583px;stroke-linecap:butt;stroke-linejoin:miter;stroke-opacity:1"
         d="m 81.952009,23.748563 c 2.22469,1.724135 3.904912,2.483868 4.783082,2.669628 1.573385,0.324803 2.599951,0.192714 3.64293,0.139043 0,0 2.113456,-0.02781 1.946604,-0.250278 -0.166851,-0.222469 -2.725244,-0.41713 -2.725244,-0.41713 0,0 -1.87615,-0.143064 -3.170185,-0.444937 -1.294035,-0.301873 -4.477187,-1.696326 -4.477187,-1.696326 z"
         id="path20013"
         sodipodi:nodetypes="cccsccc" /></g></g></svg>
