<?xml version="1.0" encoding="UTF-8" standalone="no"?>
<!-- Created with Inkscape (http://www.inkscape.org/) -->

<svg
   width="210mm"
   height="297mm"
   viewBox="0 0 210 297"
   version="1.1"
   id="svg1"
   inkscape:version="1.3 (0e150ed6c4, 2023-07-21)"
   sodipodi:docname="button-13(settings)-2.svg"
   xml:space="preserve"
   xmlns:inkscape="http://www.inkscape.org/namespaces/inkscape"
   xmlns:sodipodi="http://sodipodi.sourceforge.net/DTD/sodipodi-0.dtd"
   xmlns:xlink="http://www.w3.org/1999/xlink"
   xmlns="http://www.w3.org/2000/svg"
   xmlns:svg="http://www.w3.org/2000/svg"><sodipodi:namedview
     id="namedview1"
     pagecolor="#ffffff"
     bordercolor="#666666"
     borderopacity="1.0"
     inkscape:showpageshadow="2"
     inkscape:pageopacity="0.0"
     inkscape:pagecheckerboard="0"
     inkscape:deskcolor="#d1d1d1"
     inkscape:document-units="mm"
     inkscape:zoom="0.74653479"
     inkscape:cx="-22.771879"
     inkscape:cy="482.22803"
     inkscape:window-width="1920"
     inkscape:window-height="1058"
     inkscape:window-x="-8"
     inkscape:window-y="-8"
     inkscape:window-maximized="1"
     inkscape:current-layer="layer1" /><defs
     id="defs1"><filter
       inkscape:collect="always"
       style="color-interpolation-filters:sRGB"
       id="filter26"
       x="-0.047006945"
       y="-0.043150128"
       width="1.0940139"
       height="1.0863003"><feGaussianBlur
         inkscape:collect="always"
         stdDeviation="1.2424603"
         id="feGaussianBlur26" /></filter><linearGradient
       inkscape:collect="always"
       xlink:href="#linearGradient16"
       id="linearGradient9"
       gradientUnits="userSpaceOnUse"
       x1="88.249405"
       y1="100.83115"
       x2="88.072197"
       y2="33.846657"
       gradientTransform="translate(0,3.3669451)" /><linearGradient
       id="linearGradient16"
       inkscape:collect="always"><stop
         style="stop-color:#b7420c;stop-opacity:1;"
         offset="0"
         id="stop10" /><stop
         style="stop-color:#fccc80;stop-opacity:1;"
         offset="1"
         id="stop16" /></linearGradient><linearGradient
       inkscape:collect="always"
       xlink:href="#linearGradient19"
       id="linearGradient18"
       gradientUnits="userSpaceOnUse"
       gradientTransform="translate(0,-2.3036993)"
       x1="88.249405"
       y1="100.83115"
       x2="88.072197"
       y2="33.846657" /><linearGradient
       id="linearGradient19"
       inkscape:collect="always"><stop
         style="stop-color:#f9dda8;stop-opacity:1;"
         offset="0"
         id="stop18" /><stop
         style="stop-color:#fbf3d8;stop-opacity:1;"
         offset="1"
         id="stop19" /></linearGradient><linearGradient
       inkscape:collect="always"
       xlink:href="#linearGradient3"
       id="linearGradient4"
       x1="88.249405"
       y1="100.83115"
       x2="88.072197"
       y2="33.846657"
       gradientUnits="userSpaceOnUse" /><linearGradient
       id="linearGradient3"
       inkscape:collect="always"><stop
         style="stop-color:#eb5d15;stop-opacity:1;"
         offset="0"
         id="stop3" /><stop
         style="stop-color:#ed671f;stop-opacity:1;"
         offset="0.16538025"
         id="stop5" /><stop
         style="stop-color:#eb863e;stop-opacity:1;"
         offset="0.36435202"
         id="stop6" /><stop
         style="stop-color:#f4954a;stop-opacity:1"
         offset="0.52116036"
         id="stop9" /><stop
         style="stop-color:#fabc70;stop-opacity:1;"
         offset="0.67725092"
         id="stop8" /><stop
         style="stop-color:#fdcb7d;stop-opacity:1;"
         offset="0.81746155"
         id="stop7" /><stop
         style="stop-color:#ffd88a;stop-opacity:1;"
         offset="1"
         id="stop4" /></linearGradient><filter
       inkscape:collect="always"
       style="color-interpolation-filters:sRGB"
       id="filter2"
       x="-0.087921852"
       y="-0.086671829"
       width="1.1758437"
       height="1.1733437"><feGaussianBlur
         inkscape:collect="always"
         stdDeviation="1.5249084"
         id="feGaussianBlur2" /></filter><linearGradient
       inkscape:collect="always"
       xlink:href="#linearGradient16"
       id="linearGradient10"
       gradientUnits="userSpaceOnUse"
       gradientTransform="translate(0,3.3669451)"
       x1="88.249405"
       y1="100.83115"
       x2="88.072197"
       y2="33.846657" /><linearGradient
       inkscape:collect="always"
       xlink:href="#linearGradient19"
       id="linearGradient11"
       gradientUnits="userSpaceOnUse"
       gradientTransform="translate(0,-2.3036993)"
       x1="88.249405"
       y1="100.83115"
       x2="88.072197"
       y2="33.846657" /><linearGradient
       inkscape:collect="always"
       xlink:href="#linearGradient3"
       id="linearGradient12"
       gradientUnits="userSpaceOnUse"
       x1="88.249405"
       y1="100.83115"
       x2="88.072197"
       y2="33.846657" /></defs><g
     inkscape:label="Layer 1"
     inkscape:groupmode="layer"
     id="layer1"><g
       id="g19"
       transform="matrix(0.83508044,0,0,0.83629393,-23.524362,-7.8042045)"
       style="stroke-width:1.19662"
       inkscape:export-filename="button-13(settings)-2.png"
       inkscape:export-xdpi="56.099739"
       inkscape:export-ydpi="56.099739"
       inkscape:label="Up"><path
         id="rect19"
         style="mix-blend-mode:normal;fill:#161616;fill-opacity:1;stroke:none;stroke-width:0.676089;stroke-linecap:round;stroke-linejoin:round;stroke-dashoffset:5.21575;filter:url(#filter26)"
         d="m 67.756588,33.535873 c -7.103364,0 -12.822473,5.718593 -12.822473,12.821957 v 37.790975 2.303735 3.36672 c 0,7.103363 5.719109,12.82196 12.822473,12.82196 h 37.790972 c 7.10337,0 12.82196,-5.718597 12.82196,-12.82196 V 86.45254 48.661048 46.35783 c 0,-7.103364 -5.71859,-12.821957 -12.82196,-12.821957 z" /><path
         id="rect9"
         style="opacity:1;fill:url(#linearGradient9);stroke-width:0.676089;stroke-linecap:round;stroke-linejoin:round;stroke-dashoffset:5.21575"
         d="M 67.756337,38.454441 H 105.5474 c 7.10337,0 12.82197,5.718598 12.82197,12.821969 v 37.791063 c 0,7.103371 -5.7186,12.821967 -12.82197,12.821967 H 67.756337 c -7.103371,0 -12.821969,-5.718596 -12.821969,-12.821967 V 51.27641 c 0,-7.103371 5.718598,-12.821969 12.821969,-12.821969 z" /><path
         id="rect18"
         style="opacity:1;fill:url(#linearGradient18);stroke-width:0.676089;stroke-linecap:round;stroke-linejoin:round;stroke-dashoffset:5.21575"
         d="M 67.756337,32.783798 H 105.5474 c 7.10337,0 12.82197,5.718598 12.82197,12.821969 v 37.791064 c 0,7.10337 -5.7186,12.821969 -12.82197,12.821969 H 67.756337 c -7.103371,0 -12.821969,-5.718599 -12.821969,-12.821969 V 45.605767 c 0,-7.103371 5.718598,-12.821969 12.821969,-12.821969 z" /><path
         id="rect1"
         style="opacity:1;fill:url(#linearGradient4);stroke-width:0.676089;stroke-linecap:round;stroke-linejoin:round;stroke-dashoffset:5.21575"
         d="M 67.756337,35.087498 H 105.5474 c 7.10337,0 12.82197,5.718598 12.82197,12.821969 V 85.70053 c 0,7.103371 -5.7186,12.821969 -12.82197,12.821969 H 67.756337 c -7.103371,0 -12.821969,-5.718598 -12.821969,-12.821969 V 47.909467 c 0,-7.103371 5.718598,-12.821969 12.821969,-12.821969 z" /><g
         id="g2"
         style="display:inline"
         inkscape:label="g2"><path
           style="opacity:0.74965422;fill:#000000;fill-opacity:1;stroke:none;filter:url(#filter2)"
           d="m 83.976992,89.166624 c -0.514737,-0.180099 -0.548531,-0.289668 -0.997066,-3.232788 -0.228153,-1.49706 -0.43274,-2.796162 -0.454638,-2.886893 -0.02696,-0.111716 -0.351725,-0.324711 -1.006123,-0.659861 -0.53147,-0.272193 -1.345503,-0.743877 -1.808962,-1.048187 l -0.842651,-0.553291 -2.673757,1.071557 c -1.470566,0.589356 -2.822441,1.091122 -3.004167,1.115035 -0.676866,0.08907 -0.662366,0.108431 -3.057706,-4.083275 -2.332475,-4.081699 -2.363449,-4.152195 -2.039715,-4.642369 0.08071,-0.122208 1.149137,-1.035023 2.374278,-2.028477 1.681054,-1.363151 2.221319,-1.844875 2.202218,-1.963594 -0.01392,-0.08652 -0.05265,-0.573571 -0.08607,-1.082332 -0.0567,-0.863203 -0.03878,-1.287192 0.107329,-2.539252 l 0.05775,-0.494896 -2.285824,-1.731172 c -2.334361,-1.767935 -2.682724,-2.106231 -2.682724,-2.605205 0,-0.203848 4.100996,-7.471716 4.410868,-7.817029 0.247356,-0.275646 0.57236,-0.425197 0.924039,-0.425197 0.202522,0 1.169595,0.358776 2.890298,1.072275 1.422267,0.589751 2.621691,1.072274 2.665386,1.072274 0.04369,0 0.556999,-0.321901 1.140676,-0.715335 0.583676,-0.393434 1.377184,-0.862381 1.763351,-1.042104 0.386167,-0.179723 0.708549,-0.331298 0.716404,-0.336834 0.0079,-0.0055 0.207601,-1.327493 0.44388,-2.937683 0.250108,-1.704437 0.479787,-3.008046 0.549724,-3.120117 0.06607,-0.105873 0.275206,-0.262806 0.464747,-0.348739 0.324112,-0.146944 0.604427,-0.15635 4.71007,-0.158054 4.880073,-0.002 4.829841,-0.0075 5.064027,0.55217 0.064,0.152959 0.09488,0.31283 0.06861,0.355271 -0.02627,0.04244 0.145983,1.334245 0.38278,2.870676 l 0.430539,2.793512 0.998184,0.518965 c 0.549002,0.28543 1.357581,0.755059 1.796842,1.043618 0.439261,0.28856 0.828637,0.524654 0.86528,0.524654 0.03664,0 1.277928,-0.482523 2.758411,-1.072274 1.76715,-0.703947 2.79782,-1.072275 3.00048,-1.072275 0.63541,0 0.62535,-0.01379 2.92866,4.016176 1.18774,2.078139 2.18216,3.892362 2.2098,4.031606 0.10728,0.540285 -0.0603,0.721042 -2.47689,2.672373 l -2.28788,1.847376 0.0667,0.335467 c 0.0852,0.428645 0.0863,2.445233 0.002,3.304842 l -0.0648,0.659861 2.51711,1.732135 c 1.42658,0.981702 2.55512,1.814221 2.60486,1.921603 0.12694,0.274057 0.10529,0.588966 -0.0664,0.96529 -0.17144,0.375864 -4.09559,7.244816 -4.29789,7.523161 -0.17899,0.246267 -0.70276,0.45121 -0.98255,0.38445 -0.12304,-0.02936 -1.24592,-0.460423 -2.49528,-0.957919 -1.24936,-0.497497 -2.441078,-0.971561 -2.648262,-1.053476 l -0.376699,-0.148936 -0.639228,0.438678 c -0.351575,0.241272 -1.168439,0.720014 -1.815254,1.063871 l -1.176026,0.625193 -0.431953,2.826066 c -0.463413,3.031899 -0.481351,3.091892 -1.008987,3.374456 -0.267688,0.143354 -0.556033,0.152427 -4.705684,0.148056 -3.201992,-0.0034 -4.498084,-0.03179 -4.701894,-0.103103 z m 6.43462,-13.746836 c 1.892089,-0.547584 3.602381,-1.912817 4.577508,-3.653976 0.15862,-0.283229 0.405357,-0.867333 0.548303,-1.298009 0.337875,-1.017971 0.427681,-2.544403 0.212178,-3.60641 -0.363765,-1.792651 -1.50261,-3.548168 -2.988736,-4.607107 -0.675098,-0.481041 -1.750203,-0.984394 -2.555122,-1.196281 -0.879529,-0.231528 -2.378542,-0.252612 -3.280476,-0.04614 -3.728193,0.853463 -6.282728,4.369781 -5.843454,8.043516 0.354797,2.967238 2.437549,5.453613 5.283504,6.307409 0.938072,0.281425 1.024005,0.291148 2.31228,0.261644 0.840406,-0.01925 1.267604,-0.06966 1.734015,-0.204646 z"
           id="path2" /><path
           style="fill:#fff599;fill-opacity:1;stroke:none"
           d="m 82.033868,87.8128 c -0.514737,-0.180099 -0.548531,-0.289668 -0.997066,-3.232788 -0.228153,-1.49706 -0.43274,-2.796162 -0.454638,-2.886893 -0.02696,-0.111716 -0.351725,-0.324711 -1.006123,-0.659861 -0.53147,-0.272193 -1.345503,-0.743877 -1.808962,-1.048187 l -0.842651,-0.553291 -2.673757,1.071557 c -1.470566,0.589356 -2.822441,1.091122 -3.004167,1.115035 -0.676866,0.08907 -0.662366,0.108431 -3.057706,-4.083275 -2.332475,-4.081699 -2.363449,-4.152195 -2.039715,-4.642369 0.08071,-0.122208 1.149137,-1.035023 2.374278,-2.028477 1.681054,-1.363151 2.221319,-1.844875 2.202218,-1.963594 -0.01392,-0.08652 -0.05265,-0.573571 -0.08607,-1.082332 -0.0567,-0.863203 -0.03878,-1.287192 0.107329,-2.539252 l 0.05775,-0.494896 -2.285824,-1.731172 C 66.184403,61.28507 65.83604,60.946774 65.83604,60.4478 c 0,-0.203848 4.100996,-7.471716 4.410868,-7.817029 0.247356,-0.275646 0.57236,-0.425197 0.924039,-0.425197 0.202522,0 1.169595,0.358776 2.890298,1.072275 1.422267,0.589751 2.621691,1.072274 2.665386,1.072274 0.04369,0 0.556999,-0.321901 1.140676,-0.715335 0.583676,-0.393434 1.377184,-0.862381 1.763351,-1.042104 0.386167,-0.179723 0.708549,-0.331298 0.716404,-0.336834 0.0079,-0.0055 0.207601,-1.327493 0.44388,-2.937683 0.250108,-1.704437 0.479787,-3.008046 0.549724,-3.120117 0.06607,-0.105873 0.275206,-0.262806 0.464747,-0.348739 0.324112,-0.146944 0.604427,-0.15635 4.71007,-0.158054 4.880073,-0.002 4.829841,-0.0075 5.064027,0.55217 0.064,0.152959 0.09488,0.31283 0.06861,0.355271 -0.02627,0.04244 0.145983,1.334245 0.38278,2.870676 l 0.430539,2.793512 0.998184,0.518965 c 0.549002,0.28543 1.357581,0.755059 1.796842,1.043618 0.439261,0.28856 0.828637,0.524654 0.86528,0.524654 0.03664,0 1.277928,-0.482523 2.758412,-1.072274 1.767153,-0.703947 2.797823,-1.072275 3.000483,-1.072275 0.63541,0 0.62535,-0.01379 2.92866,4.016176 1.18774,2.078139 2.18216,3.892362 2.2098,4.031606 0.10728,0.540285 -0.0603,0.721042 -2.47689,2.672373 l -2.28788,1.847376 0.0667,0.335467 c 0.0852,0.428645 0.0863,2.445233 0.002,3.304842 l -0.0648,0.659861 2.51711,1.732135 c 1.42658,0.981702 2.55512,1.814221 2.60486,1.921603 0.12694,0.274057 0.10529,0.588966 -0.0664,0.96529 -0.17144,0.375864 -4.09559,7.244816 -4.29789,7.523161 -0.17899,0.246267 -0.70276,0.45121 -0.98255,0.38445 -0.12304,-0.02936 -1.24592,-0.460423 -2.495278,-0.957919 -1.249363,-0.497497 -2.441084,-0.971561 -2.648268,-1.053476 l -0.376699,-0.148936 -0.639228,0.438678 c -0.351575,0.241272 -1.168439,0.720014 -1.815254,1.063871 l -1.176026,0.625193 -0.431953,2.826066 c -0.463413,3.031899 -0.481351,3.091892 -1.008987,3.374456 -0.267688,0.143354 -0.556033,0.152427 -4.705684,0.148056 -3.201992,-0.0034 -4.498084,-0.03179 -4.701894,-0.103103 z m 6.43462,-13.746836 c 1.892089,-0.547584 3.602381,-1.912817 4.577508,-3.653976 0.15862,-0.283229 0.405357,-0.867333 0.548303,-1.298009 0.337875,-1.017971 0.427681,-2.544403 0.212178,-3.60641 -0.363765,-1.792651 -1.50261,-3.548168 -2.988736,-4.607107 -0.675098,-0.481041 -1.750203,-0.984394 -2.555122,-1.196281 -0.879529,-0.231528 -2.378542,-0.252612 -3.280476,-0.04614 -3.728193,0.853463 -6.282728,4.369781 -5.843454,8.043516 0.354797,2.967238 2.437549,5.453613 5.283504,6.307409 0.938072,0.281425 1.024005,0.291148 2.31228,0.261644 0.840406,-0.01925 1.267604,-0.06966 1.734015,-0.204646 z"
           id="path1" /></g></g><g
       id="g9"
       transform="matrix(0.83508044,0,0,0.83629393,-23.524362,72.390818)"
       style="stroke-width:1.19662"
       inkscape:export-filename=".\button-13(settings)-2-down.png"
       inkscape:export-xdpi="56.099739"
       inkscape:export-ydpi="56.099739"
       inkscape:label="Down"><path
         id="path3"
         style="mix-blend-mode:normal;fill:#161616;fill-opacity:1;stroke:none;stroke-width:0.676089;stroke-linecap:round;stroke-linejoin:round;stroke-dashoffset:5.21575;filter:url(#filter26)"
         d="m 67.756588,33.535873 c -7.103364,0 -12.822473,5.718593 -12.822473,12.821957 v 37.790975 2.303735 3.36672 c 0,7.103363 5.719109,12.82196 12.822473,12.82196 h 37.790972 c 7.10337,0 12.82196,-5.718597 12.82196,-12.82196 V 86.45254 48.661048 46.35783 c 0,-7.103364 -5.71859,-12.821957 -12.82196,-12.821957 z" /><path
         id="path4"
         style="opacity:1;fill:url(#linearGradient10);stroke-width:0.676089;stroke-linecap:round;stroke-linejoin:round;stroke-dashoffset:5.21575"
         d="M 67.756337,38.454441 H 105.5474 c 7.10337,0 12.82197,5.718598 12.82197,12.821969 v 37.791063 c 0,7.103371 -5.7186,12.821967 -12.82197,12.821967 H 67.756337 c -7.103371,0 -12.821969,-5.718596 -12.821969,-12.821967 V 51.27641 c 0,-7.103371 5.718598,-12.821969 12.821969,-12.821969 z" /><path
         id="path5"
         style="opacity:1;fill:url(#linearGradient11);stroke-width:0.676089;stroke-linecap:round;stroke-linejoin:round;stroke-dashoffset:5.21575"
         d="M 67.756337,32.783798 H 105.5474 c 7.10337,0 12.82197,5.718598 12.82197,12.821969 v 37.791064 c 0,7.10337 -5.7186,12.821969 -12.82197,12.821969 H 67.756337 c -7.103371,0 -12.821969,-5.718599 -12.821969,-12.821969 V 45.605767 c 0,-7.103371 5.718598,-12.821969 12.821969,-12.821969 z" /><path
         id="path6"
         style="opacity:1;fill:url(#linearGradient12);stroke-width:0.676089;stroke-linecap:round;stroke-linejoin:round;stroke-dashoffset:5.21575"
         d="M 67.756337,35.087498 H 105.5474 c 7.10337,0 12.82197,5.718598 12.82197,12.821969 V 85.70053 c 0,7.103371 -5.7186,12.821969 -12.82197,12.821969 H 67.756337 c -7.103371,0 -12.821969,-5.718598 -12.821969,-12.821969 V 47.909467 c 0,-7.103371 5.718598,-12.821969 12.821969,-12.821969 z" /><g
         id="g8"
         style="display:inline"><path
           style="opacity:0.749654;fill:#000000;fill-opacity:1;stroke:none;filter:url(#filter2)"
           d="m 83.976992,89.166624 c -0.514737,-0.180099 -0.548531,-0.289668 -0.997066,-3.232788 -0.228153,-1.49706 -0.43274,-2.796162 -0.454638,-2.886893 -0.02696,-0.111716 -0.351725,-0.324711 -1.006123,-0.659861 -0.53147,-0.272193 -1.345503,-0.743877 -1.808962,-1.048187 l -0.842651,-0.553291 -2.673757,1.071557 c -1.470566,0.589356 -2.822441,1.091122 -3.004167,1.115035 -0.676866,0.08907 -0.662366,0.108431 -3.057706,-4.083275 -2.332475,-4.081699 -2.363449,-4.152195 -2.039715,-4.642369 0.08071,-0.122208 1.149137,-1.035023 2.374278,-2.028477 1.681054,-1.363151 2.221319,-1.844875 2.202218,-1.963594 -0.01392,-0.08652 -0.05265,-0.573571 -0.08607,-1.082332 -0.0567,-0.863203 -0.03878,-1.287192 0.107329,-2.539252 l 0.05775,-0.494896 -2.285824,-1.731172 c -2.334361,-1.767935 -2.682724,-2.106231 -2.682724,-2.605205 0,-0.203848 4.100996,-7.471716 4.410868,-7.817029 0.247356,-0.275646 0.57236,-0.425197 0.924039,-0.425197 0.202522,0 1.169595,0.358776 2.890298,1.072275 1.422267,0.589751 2.621691,1.072274 2.665386,1.072274 0.04369,0 0.556999,-0.321901 1.140676,-0.715335 0.583676,-0.393434 1.377184,-0.862381 1.763351,-1.042104 0.386167,-0.179723 0.708549,-0.331298 0.716404,-0.336834 0.0079,-0.0055 0.207601,-1.327493 0.44388,-2.937683 0.250108,-1.704437 0.479787,-3.008046 0.549724,-3.120117 0.06607,-0.105873 0.275206,-0.262806 0.464747,-0.348739 0.324112,-0.146944 0.604427,-0.15635 4.71007,-0.158054 4.880073,-0.002 4.829841,-0.0075 5.064027,0.55217 0.064,0.152959 0.09488,0.31283 0.06861,0.355271 -0.02627,0.04244 0.145983,1.334245 0.38278,2.870676 l 0.430539,2.793512 0.998184,0.518965 c 0.549002,0.28543 1.357581,0.755059 1.796842,1.043618 0.439261,0.28856 0.828637,0.524654 0.86528,0.524654 0.03664,0 1.277928,-0.482523 2.758411,-1.072274 1.76715,-0.703947 2.79782,-1.072275 3.00048,-1.072275 0.63541,0 0.62535,-0.01379 2.92866,4.016176 1.18774,2.078139 2.18216,3.892362 2.2098,4.031606 0.10728,0.540285 -0.0603,0.721042 -2.47689,2.672373 l -2.28788,1.847376 0.0667,0.335467 c 0.0852,0.428645 0.0863,2.445233 0.002,3.304842 l -0.0648,0.659861 2.51711,1.732135 c 1.42658,0.981702 2.55512,1.814221 2.60486,1.921603 0.12694,0.274057 0.10529,0.588966 -0.0664,0.96529 -0.17144,0.375864 -4.09559,7.244816 -4.29789,7.523161 -0.17899,0.246267 -0.70276,0.45121 -0.98255,0.38445 -0.12304,-0.02936 -1.24592,-0.460423 -2.49528,-0.957919 -1.24936,-0.497497 -2.441078,-0.971561 -2.648262,-1.053476 l -0.376699,-0.148936 -0.639228,0.438678 c -0.351575,0.241272 -1.168439,0.720014 -1.815254,1.063871 l -1.176026,0.625193 -0.431953,2.826066 c -0.463413,3.031899 -0.481351,3.091892 -1.008987,3.374456 -0.267688,0.143354 -0.556033,0.152427 -4.705684,0.148056 -3.201992,-0.0034 -4.498084,-0.03179 -4.701894,-0.103103 z m 6.43462,-13.746836 c 1.892089,-0.547584 3.602381,-1.912817 4.577508,-3.653976 0.15862,-0.283229 0.405357,-0.867333 0.548303,-1.298009 0.337875,-1.017971 0.427681,-2.544403 0.212178,-3.60641 -0.363765,-1.792651 -1.50261,-3.548168 -2.988736,-4.607107 -0.675098,-0.481041 -1.750203,-0.984394 -2.555122,-1.196281 -0.879529,-0.231528 -2.378542,-0.252612 -3.280476,-0.04614 -3.728193,0.853463 -6.282728,4.369781 -5.843454,8.043516 0.354797,2.967238 2.437549,5.453613 5.283504,6.307409 0.938072,0.281425 1.024005,0.291148 2.31228,0.261644 0.840406,-0.01925 1.267604,-0.06966 1.734015,-0.204646 z"
           id="path7" /><path
           style="fill:#fff599;fill-opacity:1;stroke:none"
           d="m 82.033868,87.8128 c -0.514737,-0.180099 -0.548531,-0.289668 -0.997066,-3.232788 -0.228153,-1.49706 -0.43274,-2.796162 -0.454638,-2.886893 -0.02696,-0.111716 -0.351725,-0.324711 -1.006123,-0.659861 -0.53147,-0.272193 -1.345503,-0.743877 -1.808962,-1.048187 l -0.842651,-0.553291 -2.673757,1.071557 c -1.470566,0.589356 -2.822441,1.091122 -3.004167,1.115035 -0.676866,0.08907 -0.662366,0.108431 -3.057706,-4.083275 -2.332475,-4.081699 -2.363449,-4.152195 -2.039715,-4.642369 0.08071,-0.122208 1.149137,-1.035023 2.374278,-2.028477 1.681054,-1.363151 2.221319,-1.844875 2.202218,-1.963594 -0.01392,-0.08652 -0.05265,-0.573571 -0.08607,-1.082332 -0.0567,-0.863203 -0.03878,-1.287192 0.107329,-2.539252 l 0.05775,-0.494896 -2.285824,-1.731172 C 66.184403,61.28507 65.83604,60.946774 65.83604,60.4478 c 0,-0.203848 4.100996,-7.471716 4.410868,-7.817029 0.247356,-0.275646 0.57236,-0.425197 0.924039,-0.425197 0.202522,0 1.169595,0.358776 2.890298,1.072275 1.422267,0.589751 2.621691,1.072274 2.665386,1.072274 0.04369,0 0.556999,-0.321901 1.140676,-0.715335 0.583676,-0.393434 1.377184,-0.862381 1.763351,-1.042104 0.386167,-0.179723 0.708549,-0.331298 0.716404,-0.336834 0.0079,-0.0055 0.207601,-1.327493 0.44388,-2.937683 0.250108,-1.704437 0.479787,-3.008046 0.549724,-3.120117 0.06607,-0.105873 0.275206,-0.262806 0.464747,-0.348739 0.324112,-0.146944 0.604427,-0.15635 4.71007,-0.158054 4.880073,-0.002 4.829841,-0.0075 5.064027,0.55217 0.064,0.152959 0.09488,0.31283 0.06861,0.355271 -0.02627,0.04244 0.145983,1.334245 0.38278,2.870676 l 0.430539,2.793512 0.998184,0.518965 c 0.549002,0.28543 1.357581,0.755059 1.796842,1.043618 0.439261,0.28856 0.828637,0.524654 0.86528,0.524654 0.03664,0 1.277928,-0.482523 2.758412,-1.072274 1.767153,-0.703947 2.797823,-1.072275 3.000483,-1.072275 0.63541,0 0.62535,-0.01379 2.92866,4.016176 1.18774,2.078139 2.18216,3.892362 2.2098,4.031606 0.10728,0.540285 -0.0603,0.721042 -2.47689,2.672373 l -2.28788,1.847376 0.0667,0.335467 c 0.0852,0.428645 0.0863,2.445233 0.002,3.304842 l -0.0648,0.659861 2.51711,1.732135 c 1.42658,0.981702 2.55512,1.814221 2.60486,1.921603 0.12694,0.274057 0.10529,0.588966 -0.0664,0.96529 -0.17144,0.375864 -4.09559,7.244816 -4.29789,7.523161 -0.17899,0.246267 -0.70276,0.45121 -0.98255,0.38445 -0.12304,-0.02936 -1.24592,-0.460423 -2.495278,-0.957919 -1.249363,-0.497497 -2.441084,-0.971561 -2.648268,-1.053476 l -0.376699,-0.148936 -0.639228,0.438678 c -0.351575,0.241272 -1.168439,0.720014 -1.815254,1.063871 l -1.176026,0.625193 -0.431953,2.826066 c -0.463413,3.031899 -0.481351,3.091892 -1.008987,3.374456 -0.267688,0.143354 -0.556033,0.152427 -4.705684,0.148056 -3.201992,-0.0034 -4.498084,-0.03179 -4.701894,-0.103103 z m 6.43462,-13.746836 c 1.892089,-0.547584 3.602381,-1.912817 4.577508,-3.653976 0.15862,-0.283229 0.405357,-0.867333 0.548303,-1.298009 0.337875,-1.017971 0.427681,-2.544403 0.212178,-3.60641 -0.363765,-1.792651 -1.50261,-3.548168 -2.988736,-4.607107 -0.675098,-0.481041 -1.750203,-0.984394 -2.555122,-1.196281 -0.879529,-0.231528 -2.378542,-0.252612 -3.280476,-0.04614 -3.728193,0.853463 -6.282728,4.369781 -5.843454,8.043516 0.354797,2.967238 2.437549,5.453613 5.283504,6.307409 0.938072,0.281425 1.024005,0.291148 2.31228,0.261644 0.840406,-0.01925 1.267604,-0.06966 1.734015,-0.204646 z"
           id="path8" /></g><path
         id="path12"
         style="opacity:0.411;mix-blend-mode:normal;fill:#161616;fill-opacity:1;stroke:none;stroke-width:0.676089;stroke-linecap:round;stroke-linejoin:round;stroke-dashoffset:5.21575"
         d="m 67.756589,32.794236 c -7.103364,0 -12.822473,5.718593 -12.822473,12.821958 v 37.790975 2.303735 3.366721 c 0,7.103362 5.719109,12.821955 12.822473,12.821955 h 37.790971 c 7.10337,0 12.82197,-5.718593 12.82197,-12.821955 V 85.710904 47.919412 45.616194 c 0,-7.103365 -5.7186,-12.821958 -12.82197,-12.821958 z" /></g></g></svg>
