<?xml version="1.0" encoding="UTF-8" standalone="no"?>
<!-- Created with Inkscape (http://www.inkscape.org/) -->

<svg
   width="210mm"
   height="297mm"
   viewBox="0 0 210 297"
   version="1.1"
   id="svg5"
   xml:space="preserve"
   inkscape:version="1.2 (dc2aedaf03, 2022-05-15)"
   sodipodi:docname="won-dialog-13-pane.svg"
   inkscape:export-filename="won-dialog-13-pane.png"
   inkscape:export-xdpi="52.0042"
   inkscape:export-ydpi="52.0042"
   xmlns:inkscape="http://www.inkscape.org/namespaces/inkscape"
   xmlns:sodipodi="http://sodipodi.sourceforge.net/DTD/sodipodi-0.dtd"
   xmlns="http://www.w3.org/2000/svg"
   xmlns:svg="http://www.w3.org/2000/svg"><sodipodi:namedview
     id="namedview7"
     pagecolor="#ffffff"
     bordercolor="#666666"
     borderopacity="1.0"
     inkscape:showpageshadow="2"
     inkscape:pageopacity="0.0"
     inkscape:pagecheckerboard="0"
     inkscape:deskcolor="#d1d1d1"
     inkscape:document-units="mm"
     showgrid="false"
     inkscape:zoom="0.99986851"
     inkscape:cx="79.010389"
     inkscape:cy="295.53886"
     inkscape:window-width="1904"
     inkscape:window-height="1042"
     inkscape:window-x="0"
     inkscape:window-y="0"
     inkscape:window-maximized="0"
     inkscape:current-layer="layer1" /><defs
     id="defs2"><filter
       inkscape:collect="always"
       style="color-interpolation-filters:sRGB"
       id="filter852"
       x="-0.065145995"
       y="-0.05002651"
       width="1.130292"
       height="1.100053"><feGaussianBlur
         inkscape:collect="always"
         stdDeviation="1.1761151"
         id="feGaussianBlur854" /></filter><filter
       inkscape:collect="always"
       style="color-interpolation-filters:sRGB"
       id="filter805"
       x="-0.0087585165"
       y="-0.0067257858"
       width="1.017517"
       height="1.0134516"><feGaussianBlur
         inkscape:collect="always"
         stdDeviation="0.15812213"
         id="feGaussianBlur807" /></filter><filter
       inkscape:collect="always"
       style="color-interpolation-filters:sRGB"
       id="filter797"
       x="-0.010834239"
       y="-0.0079985854"
       width="1.0216685"
       height="1.0159972"><feGaussianBlur
         inkscape:collect="always"
         stdDeviation="0.17250512"
         id="feGaussianBlur799" /></filter></defs><g
     inkscape:label="Layer 1"
     inkscape:groupmode="layer"
     id="layer1"><g
       id="g848"
       transform="matrix(1.0519253,0,0,0.9912918,-0.96125215,0.23585956)"
       inkscape:export-filename=".\won-dialog-13-pane.png"
       inkscape:export-xdpi="385.20746"
       inkscape:export-ydpi="385.20746"><path
         id="rect850"
         style="stroke-width:0.267122;stroke-linecap:round;stroke-linejoin:round;paint-order:markers stroke fill;filter:url(#filter852)"
         d="m 28.093,15.634287 24.166957,0 c 5.307739,0 9.580757,4.273018 9.580757,9.580757 l 0,37.262098 c 0,5.307739 -4.273018,9.580757 -9.580757,9.580757 l -24.166957,0 c -5.307739,0 -9.580757,-4.273018 -9.580757,-9.580757 l 0,-37.262098 c 0,-5.307739 4.273018,-9.580757 9.580757,-9.580757 z"
         sodipodi:nodetypes="sssssssss" /><path
         id="rect420"
         style="fill:#7cc992;stroke-width:0.267122;stroke-linecap:round;stroke-linejoin:round;paint-order:markers stroke fill;filter:url(#filter805)"
         d="m 28.093,15.634287 24.166957,0 c 5.307739,0 9.580757,4.273018 9.580757,9.580757 l 0,37.262098 c 0,5.307739 -4.273018,9.580757 -9.580757,9.580757 l -24.166957,0 c -5.307739,0 -9.580757,-4.273018 -9.580757,-9.580757 l 0,-37.262098 c 0,-5.307739 4.273018,-9.580757 9.580757,-9.580757 z"
         sodipodi:nodetypes="sssssssss" /><path
         id="rect3302"
         style="fill:#386144;stroke-width:0.246998;stroke-linecap:round;stroke-linejoin:round;paint-order:markers stroke fill"
         d="m 28.690269,17.965746 22.543391,0 c 4.47199,0 8.072184,3.972164 8.072184,8.906197 l 0,34.411377 c 0,4.934033 -3.600194,8.906198 -8.072184,8.906198 l -22.543391,0 c -4.471989,0 -8.072183,-3.972165 -8.072183,-8.906198 l 0,-34.411377 c 0,-4.934033 3.600194,-8.906197 8.072183,-8.906197 z"
         sodipodi:nodetypes="sssssssss" /><path
         id="rect3240"
         style="fill:#ffffff;stroke-width:0.244866;stroke-linecap:round;stroke-linejoin:round;paint-order:markers stroke fill;filter:url(#filter797)"
         d="m 28.414014,17.965746 23.524933,0 c 4.068684,0 7.344196,3.772661 7.344196,8.45888 l 0,34.84293 c 0,4.68622 -3.275512,8.45888 -7.344196,8.45888 l -23.524933,0 c -4.068684,0 -7.344196,-3.77266 -7.344196,-8.45888 l 0,-34.84293 c 0,-4.686219 3.275512,-8.45888 7.344196,-8.45888 z"
         sodipodi:nodetypes="sssssssss" /></g></g></svg>
